g Broadsword
v -0.03170519 0.008831708 0.02376661
v -0.06985029 0.001485356 0.04628784
v -0.03148291 -0.004793397 0.02377623
v -0.06077657 0.001644945 0.1134545
v -0.05474467 0.008494921 0.06425452
v -0.05457984 -0.005130338 0.06426461
v -0.01177709 0.004865402 0.09353304
v -0.02839862 0.002032994 0.1088745
v -0.01171321 -0.0004194618 0.09353694
v 0.02858255 0.0027226 0.1092849
v 0.01126604 0.005144297 0.09369913
v 0.01133005 -0.000140641 0.09370301
v 0.04927863 0.009752348 0.06380215
v 0.05590211 0.003055305 0.112947
v 0.0494434 -0.003872875 0.06381225
v 0.06451571 0.00310824 0.04396248
v 0.02570852 0.009346055 0.02345192
v 0.02593072 -0.004279177 0.02346149
v -0.01665737 0.009880885 -0.1730106
v -0.02312018 -0.008149113 -0.1589127
v -0.01639191 -0.005896552 -0.1730013
v -0.02338555 0.01195796 -0.1589219
v -0.003674692 0.01288078 -0.1730886
v -0.003651602 0.01586192 -0.1590405
v 0.009307757 0.01010649 -0.1731666
v -0.0233554 0.01197929 -0.1406592
v 0.01608249 0.012395 -0.159159
v -0.003621286 0.01589127 -0.1407779
v -0.01754737 0.009509079 -0.1266371
v 0.01611292 0.01241637 -0.1408964
v -0.003637154 0.01232922 -0.1267293
v 0.01027303 0.009684603 -0.1268217
v -0.01829698 0.01103557 0.00825423
v -0.003382637 0.0144706 0.008159352
v 0.0115321 0.01128885 0.008064514
v 0.02570852 0.009346055 0.02345192
v -0.001022917 0.00914027 0.05847276
v -0.03170519 0.008831708 0.02376661
v -0.02227514 0.00887491 0.04725565
v -0.01258007 0.009000342 0.0583895
v -0.06985029 0.001485356 0.04628784
v -0.05474467 0.008494921 0.06425452
v -0.06077657 0.001644945 0.1134545
v 0.01666278 0.009345531 0.0470864
v 0.01053416 0.009280049 0.05855606
v 0.04927863 0.009752348 0.06380215
v 0.06451571 0.00310824 0.04396248
v 0.04927863 0.009752348 0.06380215
v 0.05590211 0.003055305 0.112947
v -0.02338555 0.01195796 -0.1589219
v -0.0233554 0.01197929 -0.1406592
v -0.02309003 -0.008127781 -0.14065
v -0.02312018 -0.008149113 -0.1589127
v -0.0233554 0.01197929 -0.1406592
v -0.01754737 0.009509079 -0.1266371
v -0.01720344 -0.00534231 -0.1266286
v -0.02309003 -0.008127781 -0.14065
v -0.01754737 0.009509079 -0.1266371
v -0.01829698 0.01103557 0.00825423
v -0.0179921 -0.006673789 0.008263266
v -0.01720344 -0.00534231 -0.1266286
v -0.01829698 0.01103557 0.00825423
v -0.03170519 0.008831708 0.02376661
v -0.03148291 -0.004793397 0.02377623
v -0.0179921 -0.006673789 0.008263266
v -0.05474467 0.008494921 0.06425452
v -0.02227514 0.00887491 0.04725565
v -0.02211037 -0.004750313 0.04726575
v -0.05457984 -0.005130338 0.06426461
v -0.02227514 0.00887491 0.04725565
v -0.01258007 0.009000342 0.0583895
v -0.01241551 -0.004624933 0.05839958
v -0.02211037 -0.004750313 0.04726575
v -0.01258007 0.009000342 0.0583895
v -0.01177709 0.004865402 0.09353304
v -0.01171321 -0.0004194618 0.09353694
v -0.01241551 -0.004624933 0.05839958
v 0.01126604 0.005144297 0.09369913
v 0.01053416 0.009280049 0.05855606
v 0.01069886 -0.004345158 0.05856624
v 0.01133005 -0.000140641 0.09370301
v 0.01053416 0.009280049 0.05855606
v 0.01666278 0.009345531 0.0470864
v 0.01682748 -0.004279634 0.04709643
v 0.01069886 -0.004345158 0.05856624
v 0.01666278 0.009345531 0.0470864
v 0.04927863 0.009752348 0.06380215
v 0.0494434 -0.003872875 0.06381225
v 0.01682748 -0.004279634 0.04709643
v 0.02570852 0.009346055 0.02345192
v 0.0115321 0.01128885 0.008064514
v 0.01183664 -0.006420471 0.008073478
v 0.02593072 -0.004279177 0.02346149
v 0.0115321 0.01128885 0.008064514
v 0.01027303 0.009684603 -0.1268217
v 0.01061697 -0.005166665 -0.1268131
v 0.01183664 -0.006420471 0.008073478
v 0.01027303 0.009684603 -0.1268217
v 0.01611292 0.01241637 -0.1408964
v 0.01637821 -0.007690808 -0.1408873
v 0.01061697 -0.005166665 -0.1268131
v 0.01611292 0.01241637 -0.1408964
v 0.01608249 0.012395 -0.159159
v 0.01634786 -0.007712071 -0.1591498
v 0.01637821 -0.007690808 -0.1408873
v 0.01608249 0.012395 -0.159159
v 0.009307757 0.01010649 -0.1731666
v 0.009573006 -0.005670995 -0.1731574
v 0.01634786 -0.007712071 -0.1591498
v 0.009307757 0.01010649 -0.1731666
v -0.003409576 -0.008701701 -0.1730793
v 0.009573006 -0.005670995 -0.1731574
v -0.003674692 0.01288078 -0.1730886
v -0.01639191 -0.005896552 -0.1730013
v -0.01665737 0.009880885 -0.1730106
v 0.01634786 -0.007712071 -0.1591498
v 0.009573006 -0.005670995 -0.1731574
v -0.003409576 -0.008701701 -0.1730793
v -0.003386184 -0.01164338 -0.1590312
v 0.01637821 -0.007690808 -0.1408873
v -0.02312018 -0.008149113 -0.1589127
v -0.01639191 -0.005896552 -0.1730013
v -0.003356 -0.01161396 -0.1407686
v 0.01061697 -0.005166665 -0.1268131
v -0.02309003 -0.008127781 -0.14065
v -0.003293291 -0.0079864 -0.1267209
v 0.01183664 -0.006420471 0.008073478
v -0.01720344 -0.00534231 -0.1266286
v -0.003077646 -0.009754643 0.008168334
v -0.0179921 -0.006673789 0.008263266
v -0.0008582904 -0.004485043 0.05848283
v 0.01133005 -0.000140641 0.09370301
v 0.01069886 -0.004345158 0.05856624
v -0.0001916477 -0.000280025 0.09362002
v -0.01241551 -0.004624933 0.05839958
v 0.02858255 0.0027226 0.1092849
v -0.01171321 -0.0004194618 0.09353694
v 0.0001238949 -0.0002648092 0.1090816
v 0.01975152 0.003000518 0.5295311
v -0.02839862 0.002032994 0.1088745
v 0.002764805 -0.002092418 0.5294121
v 0.0126463 0.002959378 0.6109726
v -0.01433996 0.002587859 0.5292857
v 0.003335611 -0.0004506517 0.6109457
v 0.003198692 0.002923707 0.6601492
v -0.006082631 0.002790552 0.6109139
v -0.02211037 -0.004750313 0.04726575
v -0.01241551 -0.004624933 0.05839958
v -0.0008582904 -0.004485043 0.05848283
v -0.03148291 -0.004793397 0.02377623
v -0.05457984 -0.005130338 0.06426461
v -0.06985029 0.001485356 0.04628784
v -0.06077657 0.001644945 0.1134545
v -0.0179921 -0.006673789 0.008263266
v -0.003077646 -0.009754643 0.008168334
v 0.02593072 -0.004279177 0.02346149
v 0.01183664 -0.006420471 0.008073478
v 0.01682748 -0.004279634 0.04709643
v 0.01069886 -0.004345158 0.05856624
v 0.06451571 0.00310824 0.04396248
v 0.0494434 -0.003872875 0.06381225
v 0.05590211 0.003055305 0.112947
v -0.001022917 0.00914027 0.05847276
v -0.01177709 0.004865402 0.09353304
v -0.01258007 0.009000342 0.0583895
v -0.0002555247 0.00500486 0.09361605
v 0.01053416 0.009280049 0.05855606
v -0.02839862 0.002032994 0.1088745
v 0.01126604 0.005144297 0.09369913
v 6.009448E-05 0.005020202 0.1090777
v -0.01433996 0.002587859 0.5292857
v 0.02858255 0.0027226 0.1092849
v 0.002646717 0.007680732 0.5294047
v -0.006082631 0.002790552 0.6109139
v 0.01975152 0.003000518 0.5295311
v 0.00322771 0.006200518 0.6109412
v 0.003198692 0.002923707 0.6601492
v 0.0126463 0.002959378 0.6109726
vt 0.1631983 0.08038447
vt 0.2092238 0.06743227
vt 0.1650854 0.08506373
vt 0.2019855 0.02612362
vt 0.1959525 0.0564622
vt 0.1907467 0.05141075
vt 0.2255101 0.04545402
vt 0.2204307 0.05956103
vt 0.2197444 0.04458279
vt 0.2329726 0.1052881
vt 0.2242801 0.09307673
vt 0.229596 0.09068451
vt 0.09198961 0.05231912
vt 0.08678994 0.02210095
vt 0.0955033 0.04711081
vt 0.08028293 0.06402624
vt 0.1218918 0.07905728
vt 0.1186827 0.08410149
vt 0.1472232 0.2003852
vt 0.1570718 0.191122
vt 0.1509914 0.2025672
vt 0.1527289 0.1907142
vt 0.1380239 0.1999072
vt 0.138587 0.1902203
vt 0.1297154 0.1993644
vt 0.1534188 0.1783003
vt 0.1254647 0.1903614
vt 0.1389761 0.1790774
vt 0.1481564 0.1708161
vt 0.1253732 0.1778334
vt 0.1392755 0.170506
vt 0.1322728 0.1696882
vt 0.1502952 0.09039917
vt 0.1420828 0.09011241
vt 0.1341266 0.08983455
vt 0.1218918 0.07905728
vt 0.1432203 0.05754094
vt 0.1631983 0.08038447
vt 0.1621666 0.06609325
vt 0.1514027 0.05808291
vt 0.2092238 0.06743227
vt 0.1959525 0.0564622
vt 0.2019855 0.02612362
vt 0.1241145 0.06354919
vt 0.135029 0.05725488
vt 0.09198961 0.05231912
vt 0.08028293 0.06402624
vt 0.09198961 0.05231912
vt 0.08678994 0.02210095
vt 0.1527289 0.1907142
vt 0.1534188 0.1783003
vt 0.1573567 0.1756185
vt 0.1570718 0.191122
vt 0.1534188 0.1783003
vt 0.1481564 0.1708161
vt 0.1533297 0.169459
vt 0.1573567 0.1756185
vt 0.1481564 0.1708161
vt 0.1502952 0.09039917
vt 0.1553523 0.09236988
vt 0.1533297 0.169459
vt 0.1502952 0.09039917
vt 0.1631983 0.08038447
vt 0.1650854 0.08506373
vt 0.1553523 0.09236988
vt 0.1959525 0.0564622
vt 0.1621666 0.06609325
vt 0.1626817 0.05867869
vt 0.1907467 0.05141075
vt 0.1621666 0.06609325
vt 0.1514027 0.05808291
vt 0.1516351 0.05142739
vt 0.1626817 0.05867869
vt 0.2336798 0.0221861
vt 0.2255101 0.04545402
vt 0.2197444 0.04458279
vt 0.2188144 0.01993995
vt 0.2242801 0.09307673
vt 0.2101457 0.07287828
vt 0.2238514 0.06671052
vt 0.229596 0.09068451
vt 0.135029 0.05725488
vt 0.1241145 0.06354919
vt 0.1240382 0.05574018
vt 0.1352881 0.04983286
vt 0.1241145 0.06354919
vt 0.09198961 0.05231912
vt 0.0955033 0.04711081
vt 0.1240382 0.05574018
vt 0.1218918 0.07905728
vt 0.1341266 0.08983455
vt 0.1290223 0.09268936
vt 0.1186827 0.08410149
vt 0.1341266 0.08983455
vt 0.1322728 0.1696882
vt 0.1258941 0.1669632
vt 0.1290223 0.09268936
vt 0.1322728 0.1696882
vt 0.1253732 0.1778334
vt 0.1215601 0.1769314
vt 0.1258941 0.1669632
vt 0.1253732 0.1778334
vt 0.1254647 0.1903614
vt 0.1220252 0.1929738
vt 0.1215601 0.1769314
vt 0.1254647 0.1903614
vt 0.1297154 0.1993644
vt 0.1298967 0.2036246
vt 0.1220252 0.1929738
vt 0.1297154 0.1993644
vt 0.1380733 0.2049353
vt 0.1298967 0.2036246
vt 0.1380239 0.1999072
vt 0.1509914 0.2025672
vt 0.1472232 0.2003852
vt 0.152459 0.1907278
vt 0.1473632 0.2001331
vt 0.1381382 0.1998403
vt 0.1384538 0.1903878
vt 0.1530791 0.1785655
vt 0.1257098 0.1903631
vt 0.1297545 0.1995476
vt 0.1388637 0.1790665
vt 0.1481067 0.1709069
vt 0.1255942 0.1778857
vt 0.1392843 0.1704547
vt 0.1501495 0.09037366
vt 0.1322486 0.1697922
vt 0.1417063 0.09000307
vt 0.1340433 0.09007207
vt 0.2007919 0.0880413
vt 0.1872516 0.123656
vt 0.1864729 0.08921125
vt 0.2007904 0.1236169
vt 0.2143687 0.08813683
vt 0.1673128 0.139289
vt 0.2143272 0.1236591
vt 0.2007901 0.1392602
vt 0.1807613 0.5641246
vt 0.2342659 0.1392795
vt 0.2007903 0.5641237
vt 0.1897303 0.6465437
vt 0.2208189 0.564128
vt 0.2007906 0.6465409
vt 0.2007893 0.6963093
vt 0.2118511 0.6465305
vt 0.1243465 0.06409563
vt 0.1351601 0.05755671
vt 0.1427617 0.05799977
vt 0.1221621 0.07915143
vt 0.09216164 0.05290871
vt 0.0806624 0.06323931
vt 0.08669373 0.02118144
vt 0.1340433 0.09007207
vt 0.1417063 0.09000307
vt 0.16346 0.08051292
vt 0.1501495 0.09037366
vt 0.1621325 0.06627464
vt 0.1516464 0.05828705
vt 0.2083797 0.06748322
vt 0.1961918 0.05682945
vt 0.2010656 0.0261324
vt 0.2007861 0.08824622
vt 0.1872509 0.1236797
vt 0.1864951 0.08922403
vt 0.2007876 0.1237188
vt 0.2143683 0.0881507
vt 0.1673123 0.1393078
vt 0.2143266 0.1236766
vt 0.200788 0.1393367
vt 0.180759 0.5642073
vt 0.2342649 0.1393173
vt 0.2007878 0.5642083
vt 0.1897275 0.64662
vt 0.2208168 0.564204
vt 0.2007875 0.6466228
vt 0.2007889 0.6963217
vt 0.2118471 0.6466331
vn -0.5071214 -0.008881598 -0.8618288
vn -0.5071214 -0.008881574 -0.8618288
vn -0.5071214 -0.008881564 -0.8618288
vn 0.9922909 0.01209589 0.1233386
vn 0.9922909 0.01209589 0.1233386
vn 0.9922909 0.01209588 0.1233386
vn -0.6774138 -0.008730338 -0.7355504
vn -0.6774138 -0.008730334 -0.7355504
vn -0.6774138 -0.008730334 -0.7355504
vn 0.6695516 0.007564555 -0.742727
vn 0.6695516 0.007564554 -0.742727
vn 0.6695516 0.007564583 -0.742727
vn -0.9911829 -0.01188853 0.1319663
vn -0.9911829 -0.01188853 0.1319663
vn -0.9911829 -0.01188856 0.1319663
vn 0.4681447 0.007013373 -0.883624
vn 0.4681447 0.007013357 -0.883624
vn 0.4681446 0.00701339 -0.883624
vn -0.6623011 0.6340795 -0.3991246
vn -0.5345015 -0.8037897 -0.2612089
vn -0.6476834 -0.649659 -0.3980571
vn -0.5515298 0.7916325 -0.2629313
vn -0.01057544 0.9740617 -0.226035
vn -0.01073053 0.9935435 -0.1129438
vn 0.1813363 0.9576163 -0.2238038
vn -0.1933285 0.97525 0.1072915
vn 0.1777745 0.9792736 -0.09705422
vn -0.008713923 0.9922625 0.1238518
vn -0.2010732 0.9711697 0.1280591
vn 0.1752959 0.9784964 0.1087018
vn -0.007458377 0.9925875 0.1213027
vn 0.186896 0.9734937 0.1318328
vn -0.1557076 0.9871768 0.03517348
vn -0.008688544 0.9996529 0.0248723
vn 0.1418253 0.9894624 0.02914944
vn 0.1119758 0.993711 8.377512E-05
vn -0.008011266 0.995856 0.09059036
vn -0.1313784 0.9912975 0.008314621
vn -0.1300802 0.9914083 0.01374127
vn -0.07513618 0.9932762 0.08807369
vn -0.2588936 0.9652988 -0.03423987
vn -0.3401814 0.9403598 0.0002111394
vn -0.4806337 0.8746662 0.06285177
vn 0.1107517 0.993812 0.008475444
vn 0.05256212 0.9950335 0.08453052
vn 0.3205429 0.9472299 -0.002773852
vn 0.2282188 0.9727572 -0.04073705
vn 0.3205429 0.9472299 -0.002773852
vn 0.4618882 0.8850166 0.05835178
vn -0.9999115 -0.0131959 0.00166606
vn -0.9999115 -0.01319587 0.001666068
vn -0.9999115 -0.0131959 0.00166606
vn -0.9999115 -0.01319587 0.001666068
vn -0.9227823 -0.01588868 0.384994
vn -0.9227823 -0.01588867 0.3849939
vn -0.9227823 -0.01588867 0.3849939
vn -0.9227823 -0.01588867 0.3849939
vn -0.9997854 -0.0199248 -0.005686227
vn -0.9997854 -0.01992477 -0.005686218
vn -0.9997854 -0.01992477 -0.005686218
vn -0.9997854 -0.01992477 -0.005686218
vn -0.7554314 -0.01309909 -0.6550969
vn -0.7554314 -0.01309905 -0.6550969
vn -0.7554314 -0.01309907 -0.6550968
vn -0.7554314 -0.01309907 -0.6550968
vn 0.4637485 0.006265577 0.8859448
vn 0.4637485 0.006265584 0.8859448
vn 0.4637485 0.006265559 0.8859448
vn 0.4637485 0.006265552 0.8859448
vn -0.7540806 -0.008627013 0.6567253
vn -0.7540807 -0.008626973 0.6567252
vn -0.7540807 -0.008626985 0.6567252
vn -0.7540807 -0.008626972 0.6567252
vn -0.9996978 -0.01206077 0.02142363
vn -0.9996978 -0.01206077 0.02142362
vn -0.9996978 -0.01206074 0.02142363
vn -0.9996978 -0.01206074 0.02142363
vn 0.9997388 0.01207714 -0.01940165
vn 0.9997388 0.01207714 -0.01940165
vn 0.9997388 0.01207712 -0.01940166
vn 0.9997388 0.01207717 -0.01940165
vn 0.8819082 0.01101023 0.4712926
vn 0.8819082 0.01101028 0.4712926
vn 0.8819082 0.01101028 0.4712925
vn 0.8819082 0.01101027 0.4712926
vn -0.4560406 -0.004856308 0.8899457
vn -0.4560406 -0.004856326 0.8899457
vn -0.4560406 -0.004856309 0.8899457
vn -0.4560406 -0.004856293 0.8899457
vn 0.7363508 0.01197795 -0.6764939
vn 0.7363508 0.01197791 -0.6764939
vn 0.7363508 0.01197795 -0.6764939
vn 0.7363508 0.01197794 -0.6764939
vn 0.9997594 0.01990611 -0.009211884
vn 0.9997594 0.01990608 -0.009211892
vn 0.9997594 0.01990606 -0.009211897
vn 0.9997594 0.01990606 -0.009211899
vn 0.9243929 0.01630311 0.381093
vn 0.9243929 0.01630305 0.3810929
vn 0.9243929 0.01630313 0.381093
vn 0.9243929 0.01630308 0.381093
vn 0.9999115 0.01319401 -0.001679083
vn 0.9999115 0.01319398 -0.001679093
vn 0.9999115 0.01319398 -0.001679091
vn 0.9999115 0.01319401 -0.001679083
vn 0.9001143 0.01308554 -0.4354573
vn 0.9001143 0.01308554 -0.4354573
vn 0.9001143 0.01308554 -0.4354573
vn 0.9001143 0.01308558 -0.4354573
vn -0.006004561 -0.0005839944 -0.9999819
vn -0.006004567 -0.0005839908 -0.9999819
vn -0.006004567 -0.0005839908 -0.9999819
vn -0.006004561 -0.0005839944 -0.9999819
vn -0.006002523 -0.0005844947 -0.9999819
vn -0.00600253 -0.0005844911 -0.9999819
vn 0.1992276 -0.9755076 -0.09323893
vn 0.2018528 -0.9547375 -0.2184758
vn 0.008953176 -0.9745534 -0.2239768
vn 0.009404537 -0.9938253 -0.1105566
vn 0.1952365 -0.9746484 0.109285
vn -0.5345015 -0.8037897 -0.2612089
vn -0.6476834 -0.649659 -0.3980571
vn 0.01021471 -0.9918337 0.1271281
vn 0.2011795 -0.9707215 0.1312504
vn -0.174534 -0.9781111 0.1132981
vn 0.009033011 -0.9921777 0.1245064
vn 0.2087 -0.9779053 -0.01206491
vn -0.1839111 -0.9736446 0.1348818
vn 0.006435957 -0.9999058 -0.01212258
vn -0.1948676 -0.98076 -0.01168261
vn 0.01389034 -0.9957618 0.09091429
vn 0.05165542 -0.9957724 0.07595365
vn 0.07203134 -0.9936999 0.08586101
vn 0.01087299 -0.9963763 0.08435604
vn -0.05128592 -0.9948969 0.08688926
vn 0.144332 -0.9894153 0.01502202
vn -0.02793255 -0.9965372 0.07831591
vn 0.01179842 -0.9996094 0.02533668
vn 0.2399062 -0.9707417 0.01027264
vn -0.1194903 -0.9926755 0.01781711
vn 0.01096117 -0.9998605 0.01260207
vn 0.323891 -0.9451776 0.0416402
vn -0.2161065 -0.9762783 0.01336791
vn 0.01123854 -0.9988576 0.04644407
vn 0.008863127 -0.9976158 0.06844088
vn -0.3039502 -0.9516994 0.04338597
vn -0.106236 -0.9942834 0.01069791
vn -0.05128592 -0.9948969 0.08688926
vn 0.01389034 -0.9957618 0.09091429
vn -0.1074994 -0.9941907 0.005358528
vn -0.3173381 -0.9483123 -0.0003824605
vn -0.2353974 -0.9712365 -0.03588616
vn -0.4593488 -0.8859359 0.06415961
vn -0.0931227 -0.9935092 0.06532605
vn 0.01048874 -0.9979495 0.06314059
vn 0.1313733 -0.9913276 0.003294121
vn 0.1191214 -0.9910581 0.06011574
vn 0.1296377 -0.9914951 0.01147031
vn 0.07203134 -0.9936999 0.08586101
vn 0.2519014 -0.9670797 -0.03608996
vn 0.343443 -0.9391733 0.0006122649
vn 0.4831511 -0.8735021 0.05965736
vn -0.008011266 0.995856 0.09059036
vn -0.05203127 0.9956853 0.07683418
vn -0.07513618 0.9932762 0.08807369
vn -0.01323366 0.9964722 0.08287359
vn 0.05256212 0.9950335 0.08453052
vn -0.1434626 0.9895245 0.01611529
vn 0.02755114 0.9968426 0.07447038
vn -0.01238514 0.999643 0.02367836
vn -0.2388605 0.9709874 0.01136696
vn 0.1203516 0.992642 0.01331571
vn -0.01236326 0.9998655 0.01077391
vn -0.3240513 0.9451309 0.04145134
vn 0.2171546 0.9760982 0.008718859
vn -0.0099415 0.9989583 0.0445346
vn -0.009095356 0.9977493 0.06643584
vn 0.3037946 0.9518998 0.03994663
g Broadsword_0
f 3/3/3 2/2/2 1/1/1
f 6/6/6 5/5/5 4/4/4
f 9/9/9 8/8/8 7/7/7
f 12/12/12 11/11/11 10/10/10
f 15/15/15 14/14/14 13/13/13
f 18/18/18 17/17/17 16/16/16
f 21/21/21 20/20/20 19/19/19
f 20/20/20 22/22/22 19/19/19
f 23/23/23 19/19/19 22/22/22
f 24/24/24 23/23/23 22/22/22
f 25/25/25 23/23/23 24/24/24
f 22/22/22 26/26/26 24/24/24
f 27/27/27 25/25/25 24/24/24
f 26/26/26 28/28/28 24/24/24
f 24/24/24 28/28/28 27/27/27
f 26/26/26 29/29/29 28/28/28
f 28/28/28 30/30/30 27/27/27
f 29/29/29 31/31/31 28/28/28
f 28/28/28 31/31/31 30/30/30
f 31/31/31 32/32/32 30/30/30
f 29/29/29 33/33/33 31/31/31
f 31/31/31 34/34/34 32/32/32
f 33/33/33 34/34/34 31/31/31
f 34/34/34 35/35/35 32/32/32
f 36/36/36 35/35/35 34/34/34
f 37/37/37 34/34/34 33/33/33
f 34/34/34 37/37/37 36/36/36
f 33/33/33 38/38/38 37/37/37
f 38/38/38 39/39/39 37/37/37
f 39/39/39 40/40/40 37/37/37
f 38/38/38 41/41/41 39/39/39
f 41/41/41 42/42/42 39/39/39
f 41/41/41 43/43/43 42/42/42
f 37/37/37 44/44/44 36/36/36
f 37/37/37 45/45/45 44/44/44
f 44/44/44 46/46/46 36/36/36
f 48/48/48 47/47/47 36/36/36
f 48/48/48 49/49/49 47/47/47
f 52/52/52 51/51/51 50/50/50
f 53/53/53 52/52/52 50/50/50
f 56/56/56 55/55/55 54/54/54
f 57/57/57 56/56/56 54/54/54
f 60/60/60 59/59/59 58/58/58
f 61/61/61 60/60/60 58/58/58
f 64/64/64 63/63/63 62/62/62
f 65/65/65 64/64/64 62/62/62
f 68/68/68 67/67/67 66/66/66
f 69/69/69 68/68/68 66/66/66
f 72/72/72 71/71/71 70/70/70
f 73/73/73 72/72/72 70/70/70
f 76/76/76 75/75/75 74/74/74
f 77/77/77 76/76/76 74/74/74
f 80/80/80 79/79/79 78/78/78
f 81/81/81 80/80/80 78/78/78
f 84/84/84 83/83/83 82/82/82
f 85/85/85 84/84/84 82/82/82
f 88/88/88 87/87/87 86/86/86
f 89/89/89 88/88/88 86/86/86
f 92/92/92 91/91/91 90/90/90
f 93/93/93 92/92/92 90/90/90
f 96/96/96 95/95/95 94/94/94
f 97/97/97 96/96/96 94/94/94
f 100/100/100 99/99/99 98/98/98
f 101/101/101 100/100/100 98/98/98
f 104/104/104 103/103/103 102/102/102
f 105/105/105 104/104/104 102/102/102
f 108/108/108 107/107/107 106/106/106
f 109/109/109 108/108/108 106/106/106
f 112/112/112 111/111/111 110/110/110
f 111/111/111 113/113/113 110/110/110
f 111/111/111 114/114/114 113/113/113
f 114/114/114 115/115/115 113/113/113
f 118/118/118 117/117/117 116/116/116
f 119/119/119 118/118/118 116/116/116
f 116/116/116 120/120/120 119/119/119
f 119/119/119 121/121/121 118/118/118
f 121/121/121 122/122/122 118/118/118
f 120/120/120 123/123/123 119/119/119
f 119/119/119 123/123/123 121/121/121
f 120/120/120 124/124/124 123/123/123
f 123/123/123 125/125/125 121/121/121
f 124/124/124 126/126/126 123/123/123
f 123/123/123 126/126/126 125/125/125
f 124/124/124 127/127/127 126/126/126
f 126/126/126 128/128/128 125/125/125
f 127/127/127 129/129/129 126/126/126
f 126/126/126 129/129/129 128/128/128
f 129/129/129 130/130/130 128/128/128
f 133/133/133 132/132/132 131/131/131
f 132/132/132 134/134/134 131/131/131
f 131/131/131 134/134/134 135/135/135
f 132/132/132 136/136/136 134/134/134
f 134/134/134 137/137/137 135/135/135
f 136/136/136 138/138/138 134/134/134
f 134/134/134 138/138/138 137/137/137
f 136/136/136 139/139/139 138/138/138
f 138/138/138 140/140/140 137/137/137
f 139/139/139 141/141/141 138/138/138
f 138/138/138 141/141/141 140/140/140
f 139/139/139 142/142/142 141/141/141
f 141/141/141 143/143/143 140/140/140
f 142/142/142 144/144/144 141/141/141
f 141/141/141 144/144/144 143/143/143
f 142/142/142 145/145/145 144/144/144
f 144/144/144 146/146/146 143/143/143
f 144/144/144 145/145/145 146/146/146
f 149/149/149 148/148/148 147/147/147
f 149/149/149 147/147/147 150/150/150
f 147/147/147 151/151/151 150/150/150
f 151/151/151 152/152/152 150/150/150
f 151/151/151 153/153/153 152/152/152
f 149/149/149 150/150/150 154/154/154
f 154/154/154 155/155/155 149/149/149
f 156/156/156 149/149/149 155/155/155
f 155/155/155 157/157/157 156/156/156
f 156/156/156 158/158/158 149/149/149
f 158/158/158 159/159/159 149/149/149
f 156/156/156 160/160/160 158/158/158
f 160/160/160 161/161/161 158/158/158
f 160/160/160 162/162/162 161/161/161
f 165/165/165 164/164/164 163/163/163
f 164/164/164 166/166/166 163/163/163
f 163/163/163 166/166/166 167/167/167
f 164/164/164 168/168/168 166/166/166
f 166/166/166 169/169/169 167/167/167
f 168/168/168 170/170/170 166/166/166
f 166/166/166 170/170/170 169/169/169
f 168/168/168 171/171/171 170/170/170
f 170/170/170 172/172/172 169/169/169
f 171/171/171 173/173/173 170/170/170
f 170/170/170 173/173/173 172/172/172
f 171/171/171 174/174/174 173/173/173
f 173/173/173 175/175/175 172/172/172
f 174/174/174 176/176/176 173/173/173
f 173/173/173 176/176/176 175/175/175
f 174/174/174 177/177/177 176/176/176
f 176/176/176 178/178/178 175/175/175
f 176/176/176 177/177/177 178/178/178
