g Hammer
v 0.0154277 -0.0281186 -0.2230629
v -0.00713725 -0.0146312 -0.2261088
v -0.0426285 -0.01347948 0.06064346
v -0.02449566 -0.02341783 0.06311096
v -0.0788258 -0.0147428 0.3244128
v -0.06308191 -0.02127751 0.3265761
v -0.09651948 -0.01881601 0.4134463
v -0.07742655 -0.02626806 0.4160811
v -0.07742655 -0.02626806 0.4160811
v -0.09651948 -0.01881601 0.4134463
v -0.1944593 -0.1030332 0.4444805
v -0.214638 -0.07284672 0.4417887
v -0.09608965 0.001840183 0.4135796
v -0.1944593 -0.1030332 0.4444805
v -0.214638 -0.07284672 0.4417887
v -0.2214774 -0.07302865 0.4932329
v -0.2013908 -0.1030933 0.4957754
v -0.2013908 -0.1030933 0.4957754
v -0.2214774 -0.07302865 0.4932329
v -0.07816253 0.03202652 0.5368288
v -0.05226397 -0.006960765 0.5400726
v 0.03817601 0.05307579 0.5376994
v 0.01318635 0.09094987 0.5345175
v 0.02146093 0.08789425 0.434999
v 0.04648812 0.04994948 0.438333
v -0.03947435 -0.004734108 0.4086079
v -0.04063268 0.0177697 0.4084398
v -0.03381253 0.01493876 0.3226624
v -0.03285981 -0.003437576 0.3227766
v 0.002838256 0.01675836 0.06170929
v 0.005721005 -0.004967829 0.06204505
v 0.04637562 0.02156012 -0.2185386
v 0.04989367 -0.004813245 -0.2181928
v 0.0154277 -0.0281186 -0.2230629
v 0.04989367 -0.004813245 -0.2181928
v 0.04637562 0.02156012 -0.2185386
v 0.02354119 0.03486911 -0.2216225
v -0.01092128 0.01155855 -0.2264921
v -0.00713725 -0.0146312 -0.2261088
v 0.04795546 0.03984896 0.5220356
v 0.05389991 0.03756878 0.4514425
v -0.02593028 -0.01610795 0.4275044
v -0.0455448 -0.01722777 0.5185224
v -0.07717318 -0.0405034 0.437909
v -0.1815476 -0.1101962 0.4538423
v -0.1861797 -0.1102044 0.4874834
v 0.006077269 0.1033057 0.5168453
v -0.06950266 0.04954275 0.4216063
v 0.01193787 0.1011989 0.4457516
v -0.08546708 0.0428115 0.5137803
v -0.1129533 0.01341695 0.4335247
v -0.2232941 -0.05513929 0.4829269
v -0.2187679 -0.05489548 0.4487326
v -0.07742655 -0.02626806 0.4160811
v -0.03947435 -0.004734108 0.4086079
v -0.03285981 -0.003437576 0.3227766
v -0.06308191 -0.02127751 0.3265761
v 0.005721005 -0.004967829 0.06204505
v -0.02449566 -0.02341783 0.06311096
v 0.04989367 -0.004813245 -0.2181928
v 0.0154277 -0.0281186 -0.2230629
v -0.0607786 0.02743161 0.40558
v -0.09608965 0.001840183 0.4135796
v -0.07882917 0.002437831 0.3244812
v -0.05026806 0.02282976 0.3203504
v -0.04484352 0.00722473 0.06043259
v -0.0159623 0.02771885 0.05911694
v -0.01092128 0.01155855 -0.2264921
v 0.02354119 0.03486911 -0.2216225
v -0.09608965 0.001840183 0.4135796
v -0.1129533 0.01341695 0.4335247
v -0.2187679 -0.05489548 0.4487326
v -0.214638 -0.07284672 0.4417887
v -0.214638 -0.07284672 0.4417887
v -0.2187679 -0.05489548 0.4487326
v -0.2232941 -0.05513929 0.4829269
v -0.2214774 -0.07302865 0.4932329
v -0.2214774 -0.07302865 0.4932329
v -0.2232941 -0.05513929 0.4829269
v -0.08546708 0.0428115 0.5137803
v -0.07816253 0.03202652 0.5368288
v 0.01318635 0.09094987 0.5345175
v 0.006077269 0.1033057 0.5168453
v 0.01193787 0.1011989 0.4457516
v 0.02146093 0.08789425 0.434999
v 0.02146093 0.08789425 0.434999
v 0.01193787 0.1011989 0.4457516
v -0.06950266 0.04954275 0.4216063
v -0.0607786 0.02743161 0.40558
v -0.0607786 0.02743161 0.40558
v -0.06950266 0.04954275 0.4216063
v -0.1129533 0.01341695 0.4335247
v -0.09608965 0.001840183 0.4135796
v -0.1944593 -0.1030332 0.4444805
v -0.1815476 -0.1101962 0.4538423
v -0.07717318 -0.0405034 0.437909
v -0.07742655 -0.02626806 0.4160811
v -0.07742655 -0.02626806 0.4160811
v -0.07717318 -0.0405034 0.437909
v -0.02593028 -0.01610795 0.4275044
v -0.03947435 -0.004734108 0.4086079
v -0.03947435 -0.004734108 0.4086079
v -0.02593028 -0.01610795 0.4275044
v 0.05389991 0.03756878 0.4514425
v 0.04648812 0.04994948 0.438333
v 0.04648812 0.04994948 0.438333
v 0.05389991 0.03756878 0.4514425
v 0.04795546 0.03984896 0.5220356
v 0.03817601 0.05307579 0.5376994
v 0.03817601 0.05307579 0.5376994
v 0.04795546 0.03984896 0.5220356
v -0.0455448 -0.01722777 0.5185224
v -0.05226397 -0.006960765 0.5400726
v -0.2013908 -0.1030933 0.4957754
v -0.1861797 -0.1102044 0.4874834
v -0.1815476 -0.1101962 0.4538423
v -0.1944593 -0.1030332 0.4444805
v 0.04637562 0.02156012 -0.2185386
v -0.0159623 0.02771885 0.05911694
v 0.02354119 0.03486911 -0.2216225
v 0.002838256 0.01675836 0.06170929
v -0.03381253 0.01493876 0.3226624
v -0.05026806 0.02282976 0.3203504
v -0.04063268 0.0177697 0.4084398
v -0.0607786 0.02743161 0.40558
v -0.09651948 -0.01881601 0.4134463
v -0.07882917 0.002437831 0.3244812
v -0.09608965 0.001840183 0.4135796
v -0.0788258 -0.0147428 0.3244128
v -0.0426285 -0.01347948 0.06064346
v -0.04484352 0.00722473 0.06043259
v -0.00713725 -0.0146312 -0.2261088
v -0.01092128 0.01155855 -0.2264921
v 0.04648812 0.04994948 0.438333
v -0.04063268 0.0177697 0.4084398
v -0.03947435 -0.004734108 0.4086079
v 0.02146093 0.08789425 0.434999
v -0.0607786 0.02743161 0.40558
v -0.05226397 -0.006960765 0.5400726
v -0.07816253 0.03202652 0.5368288
v 0.01318635 0.09094987 0.5345175
v 0.03817601 0.05307579 0.5376994
v -0.07816253 0.03202652 0.5368288
v -0.08546708 0.0428115 0.5137803
v 0.006077269 0.1033057 0.5168453
v 0.01318635 0.09094987 0.5345175
v -0.05226397 -0.006960765 0.5400726
v -0.0455448 -0.01722777 0.5185224
v -0.1861797 -0.1102044 0.4874834
v -0.2013908 -0.1030933 0.4957754
vt 0.7479803 0.5260225
vt 0.7552272 0.5260224
vt 0.7521237 0.3212907
vt 0.7459806 0.3212801
vt 0.7519438 0.1326149
vt 0.7458688 0.1325989
vt 0.756031 0.06838396
vt 0.7484964 0.06835847
vt 0.8092107 0.6988207
vt 0.8223948 0.6866453
vt 0.7973371 0.5723414
vt 0.8297461 0.5675115
vt 0.8391246 0.6944478
vt 0.7973371 0.5723414
vt 0.8297461 0.5675115
vt 0.8288292 0.5210936
vt 0.7965447 0.5258904
vt 0.7965447 0.5258904
vt 0.8288292 0.5210936
vt 0.8280464 0.3701411
vt 0.7860753 0.3715508
vt 0.8809302 0.485637
vt 0.8341128 0.4879015
vt 0.8357185 0.5904242
vt 0.8826194 0.5880052
vt 0.7216196 0.07736601
vt 0.7142872 0.07745588
vt 0.7180768 0.1383206
vt 0.7240624 0.1382642
vt 0.7176147 0.3250655
vt 0.7237594 0.3250282
vt 0.713931 0.5260339
vt 0.7213845 0.5260339
vt 0.7650658 0.4910231
vt 0.7632187 0.5136427
vt 0.7735722 0.5211971
vt 0.7849599 0.5160735
vt 0.786804 0.4934535
vt 0.7764377 0.486075
vt 0.7326612 0.6898035
vt 0.7777583 0.6898942
vt 0.7890739 0.6404566
vt 0.7300633 0.6333381
vt 0.7797552 0.6087265
vt 0.7647462 0.537586
vt 0.7430861 0.5362269
vt 0.7326819 0.68978
vt 0.7891037 0.6404577
vt 0.7777686 0.6899338
vt 0.7300315 0.6333367
vt 0.779714 0.6087314
vt 0.7430528 0.5361742
vt 0.7649266 0.5373418
vt 0.7484964 0.06835847
vt 0.7216196 0.07736601
vt 0.7240624 0.1382642
vt 0.7458688 0.1325989
vt 0.7237594 0.3250282
vt 0.7459806 0.3212801
vt 0.7213845 0.5260339
vt 0.7479803 0.5260225
vt 0.7216083 0.07754552
vt 0.7485 0.06840937
vt 0.7458711 0.132631
vt 0.7240555 0.1383771
vt 0.7459822 0.3213012
vt 0.7237548 0.3251028
vt 0.7479803 0.5260225
vt 0.7213845 0.5260339
vt 0.7934616 0.6125036
vt 0.779714 0.6087314
vt 0.7649266 0.5373418
vt 0.7698573 0.5334116
vt 0.7698573 0.5334116
vt 0.7649266 0.5373418
vt 0.7430528 0.5361742
vt 0.7368655 0.5315705
vt 0.7368655 0.5315705
vt 0.7430528 0.5361742
vt 0.7300315 0.6333367
vt 0.7159254 0.6340166
vt 0.7217633 0.6959085
vt 0.7326819 0.68978
vt 0.7777686 0.6899338
vt 0.7853439 0.6960766
vt 0.7853439 0.6960766
vt 0.7777686 0.6899338
vt 0.7891037 0.6404577
vt 0.8001057 0.6371247
vt 0.8001057 0.6371247
vt 0.7891037 0.6404577
vt 0.779714 0.6087314
vt 0.7934616 0.6125036
vt 0.7698126 0.5334767
vt 0.7647462 0.537586
vt 0.7797552 0.6087265
vt 0.7934157 0.6125042
vt 0.7934157 0.6125042
vt 0.7797552 0.6087265
vt 0.7890739 0.6404566
vt 0.8001011 0.6371241
vt 0.8001011 0.6371241
vt 0.7890739 0.6404566
vt 0.7777583 0.6898942
vt 0.7853407 0.6960713
vt 0.7853407 0.6960713
vt 0.7777583 0.6898942
vt 0.7326612 0.6898035
vt 0.7217739 0.6958913
vt 0.7217739 0.6958913
vt 0.7326612 0.6898035
vt 0.7300633 0.6333381
vt 0.7159389 0.6340166
vt 0.7965447 0.5258904
vt 0.7811506 0.5327677
vt 0.7845595 0.5630739
vt 0.7973371 0.5723414
vt 0.713931 0.5260339
vt 0.7237548 0.3251028
vt 0.7213845 0.5260339
vt 0.7176147 0.3250655
vt 0.7180768 0.1383206
vt 0.7240555 0.1383771
vt 0.7142872 0.07745588
vt 0.7216083 0.07754552
vt 0.756031 0.06838396
vt 0.7458711 0.132631
vt 0.7485 0.06840937
vt 0.7519438 0.1326149
vt 0.7521237 0.3212907
vt 0.7459822 0.3213012
vt 0.7552272 0.5260224
vt 0.7479803 0.5260225
vt 0.8826194 0.5880052
vt 0.8637716 0.6864256
vt 0.8842674 0.6970809
vt 0.8357185 0.5904242
vt 0.8445737 0.699259
vt 0.8799074 0.3741413
vt 0.8317031 0.3763418
vt 0.8341128 0.4879015
vt 0.8809302 0.485637
vt 0.7159254 0.6340166
vt 0.7300315 0.6333367
vt 0.7326819 0.68978
vt 0.7217633 0.6959085
vt 0.7159389 0.6340166
vt 0.7300633 0.6333381
vt 0.7430861 0.5362269
vt 0.7368745 0.5315824
vn -0.4923791 -0.8685814 -0.05593948
vn -0.8251022 -0.5563843 -0.09819872
vn -0.8242635 -0.5564669 -0.1045678
vn -0.4616801 -0.8851656 -0.0577347
vn -0.8179916 -0.556047 -0.1473147
vn -0.3940534 -0.9151185 -0.08532284
vn -0.8108616 -0.5556063 -0.1838618
vn -0.3570545 -0.9274463 -0.1111557
vn -0.003769655 -0.3419063 -0.9397265
vn -0.125411 -0.1702594 -0.9773862
vn -0.1362876 -0.1991182 -0.9704523
vn -0.1560071 -0.1694082 -0.97312
vn -0.2381613 0.01121984 -0.9711608
vn -0.8217443 -0.5588495 -0.1114611
vn -0.8217443 -0.5588495 -0.1114611
vn -0.8217443 -0.5588495 -0.1114611
vn -0.8217443 -0.5588495 -0.1114611
vn -0.2378464 -0.07726068 0.9682251
vn -0.2378465 -0.07726067 0.9682251
vn -0.129557 -0.003248401 0.9915666
vn -0.1291154 -0.002949688 0.9916252
vn 0.8315263 0.5530312 0.05215815
vn 0.8315263 0.5530312 0.05215815
vn 0.8315263 0.5530312 0.05215814
vn 0.8315263 0.5530312 0.05215814
vn 0.9956394 0.05194968 0.07748095
vn 0.8318019 0.5530019 0.04790141
vn 0.8267317 0.5560797 0.0853817
vn 0.9912061 0.07387323 0.1097874
vn 0.8208308 0.5561932 0.1299465
vn 0.9823177 0.1142571 0.1483151
vn 0.8196836 0.5562215 0.1368813
vn 0.9790881 0.1324783 0.1543884
vn 0.1366186 0.005109503 -0.9906105
vn 0.1366186 0.005109503 -0.9906105
vn 0.1366186 0.005109512 -0.9906105
vn 0.1366186 0.005109497 -0.9906105
vn 0.1366186 0.005109499 -0.9906105
vn 0.1366186 0.005109514 -0.9906105
vn 0.5262085 -0.8456544 0.08929216
vn 0.5262085 -0.8456544 0.08929216
vn 0.4897065 -0.8675163 0.0871952
vn 0.5166345 -0.8531085 0.07276544
vn 0.5076964 -0.8595858 0.0579362
vn 0.5509946 -0.8335705 0.03956259
vn 0.5509946 -0.8335705 0.03956259
vn -0.5380339 0.8415506 -0.04808576
vn -0.5875238 0.8075367 -0.05196583
vn -0.5380339 0.8415506 -0.04808576
vn -0.5681456 0.8202942 -0.06578722
vn -0.5948059 0.7997301 -0.08147172
vn -0.5566108 0.8249198 -0.09844673
vn -0.5566108 0.8249198 -0.09844675
vn 0.503534 -0.8634809 0.02922891
vn 0.5035341 -0.8634809 0.02922893
vn 0.5118372 -0.8570429 0.05916257
vn 0.5097781 -0.8587589 0.05156907
vn 0.5282866 -0.8448479 0.08453026
vn 0.5264779 -0.8460166 0.08412468
vn 0.5367306 -0.8393157 0.08642577
vn 0.5367306 -0.8393157 0.0864258
vn -0.5945694 0.7960639 -0.1130019
vn -0.5945694 0.7960639 -0.1130019
vn -0.5897714 0.8024154 -0.09109887
vn -0.5880387 0.8045094 -0.0835173
vn -0.5749977 0.8160337 -0.05887814
vn -0.573353 0.8172201 -0.0584612
vn -0.5657257 0.8226534 -0.05653239
vn -0.5657257 0.8226533 -0.05653239
vn -0.4254966 0.4250231 -0.7989417
vn -0.4254967 0.4250232 -0.7989417
vn -0.4254967 0.4250232 -0.7989417
vn -0.4254966 0.4250232 -0.7989417
vn -0.9760425 -0.1741735 -0.1304019
vn -0.9760425 -0.1741735 -0.1304019
vn -0.9760425 -0.1741735 -0.1304019
vn -0.9760425 -0.1741735 -0.1304019
vn -0.5596379 0.5465887 0.6229335
vn -0.5596379 0.5465887 0.6229335
vn -0.5596379 0.5465887 0.6229335
vn -0.5596379 0.5465887 0.6229335
vn 0.8315272 0.55303 0.05215834
vn 0.8315271 0.55303 0.05215836
vn 0.8315271 0.55303 0.05215834
vn 0.8315271 0.55303 0.05215834
vn -0.1155819 0.5605083 -0.8200435
vn -0.1155819 0.5605083 -0.8200435
vn -0.1155819 0.5605083 -0.8200435
vn -0.1155819 0.5605083 -0.8200435
vn -0.5137175 0.4128712 -0.7520849
vn -0.5137175 0.4128711 -0.7520849
vn -0.5137175 0.4128712 -0.7520849
vn -0.5137175 0.4128711 -0.7520849
vn 0.3395444 -0.7025984 -0.625352
vn 0.3395444 -0.7025984 -0.625352
vn 0.3395444 -0.7025984 -0.625352
vn 0.3395444 -0.7025984 -0.625352
vn 0.2794265 -0.7673153 -0.5771898
vn 0.2794265 -0.7673153 -0.5771898
vn 0.2794265 -0.7673153 -0.5771898
vn 0.2794265 -0.7673153 -0.5771898
vn 0.5351952 -0.4718767 -0.7006415
vn 0.5351952 -0.4718767 -0.7006415
vn 0.5351952 -0.4718767 -0.7006415
vn 0.5351952 -0.4718767 -0.7006415
vn 0.831527 0.5530303 0.05215804
vn 0.831527 0.5530303 0.05215807
vn 0.8315269 0.5530303 0.05215804
vn 0.831527 0.5530303 0.05215805
vn 0.4227402 -0.6699048 0.6103429
vn 0.4227402 -0.6699048 0.6103429
vn 0.4227401 -0.6699048 0.6103429
vn 0.4227402 -0.6699048 0.6103429
vn -0.449858 -0.890948 -0.06196181
vn -0.449858 -0.890948 -0.06196181
vn -0.449858 -0.890948 -0.06196181
vn -0.449858 -0.890948 -0.06196181
vn 0.8196836 0.5562215 0.1368813
vn 0.4773917 0.8747796 0.08281183
vn 0.4921755 0.865695 0.0912988
vn 0.8208308 0.5561932 0.1299465
vn 0.8267317 0.5560797 0.0853817
vn 0.4474173 0.8934533 0.03948424
vn 0.8318019 0.5530019 0.04790141
vn 0.4318854 0.9019169 0.004567705
vn -0.8108616 -0.5556063 -0.1838618
vn -0.9864717 -0.0233885 -0.1622549
vn -0.9812745 0.01208427 -0.1922349
vn -0.8179916 -0.556047 -0.1473147
vn -0.8242635 -0.5564669 -0.1045678
vn -0.987624 -0.09330819 -0.1260646
vn -0.8251022 -0.5563843 -0.09819872
vn -0.9845757 -0.127473 -0.1198383
vn 0.292189 0.09313381 -0.9518149
vn 0.2727429 0.09253587 -0.9576265
vn 0.3214025 0.009473372 -0.9468953
vn 0.2784735 0.1145816 -0.9535846
vn 0.218249 0.1706625 -0.9608546
vn -0.1291154 -0.002949688 0.9916252
vn -0.129557 -0.003248401 0.9915666
vn -0.02013745 0.07004592 0.9973405
vn -0.02013747 0.0700459 0.9973405
vn -0.4559447 0.6947888 0.556222
vn -0.4559447 0.6947888 0.556222
vn -0.4559447 0.6947888 0.556222
vn -0.4559447 0.6947889 0.556222
vn 0.2996739 -0.7121035 0.6349049
vn 0.2996739 -0.7121035 0.6349049
vn 0.2996739 -0.7121035 0.6349049
vn 0.2996739 -0.7121035 0.6349049
g Hammer_0
f 3/3/3 2/2/2 1/1/1
f 4/4/4 3/3/3 1/1/1
f 5/5/5 3/3/3 4/4/4
f 6/6/6 5/5/5 4/4/4
f 7/7/7 5/5/5 6/6/6
f 8/8/8 7/7/7 6/6/6
f 11/11/11 10/10/10 9/9/9
f 12/12/12 10/10/10 11/11/11
f 13/13/13 10/10/10 12/12/12
f 16/16/16 15/15/15 14/14/14
f 17/17/17 16/16/16 14/14/14
f 20/20/20 19/19/19 18/18/18
f 21/21/21 20/20/20 18/18/18
f 24/24/24 23/23/23 22/22/22
f 25/25/25 24/24/24 22/22/22
f 28/28/28 27/27/27 26/26/26
f 29/29/29 28/28/28 26/26/26
f 30/30/30 28/28/28 29/29/29
f 31/31/31 30/30/30 29/29/29
f 32/32/32 30/30/30 31/31/31
f 33/33/33 32/32/32 31/31/31
f 36/36/36 35/35/35 34/34/34
f 34/34/34 37/37/37 36/36/36
f 34/34/34 38/38/38 37/37/37
f 34/34/34 39/39/39 38/38/38
f 42/42/42 41/41/41 40/40/40
f 43/43/43 42/42/42 40/40/40
f 44/44/44 42/42/42 43/43/43
f 45/45/45 44/44/44 43/43/43
f 46/46/46 45/45/45 43/43/43
f 49/49/49 48/48/48 47/47/47
f 48/48/48 50/50/50 47/47/47
f 51/51/51 50/50/50 48/48/48
f 52/52/52 50/50/50 51/51/51
f 53/53/53 52/52/52 51/51/51
f 56/56/56 55/55/55 54/54/54
f 57/57/57 56/56/56 54/54/54
f 58/58/58 56/56/56 57/57/57
f 59/59/59 58/58/58 57/57/57
f 60/60/60 58/58/58 59/59/59
f 61/61/61 60/60/60 59/59/59
f 64/64/64 63/63/63 62/62/62
f 65/65/65 64/64/64 62/62/62
f 66/66/66 64/64/64 65/65/65
f 67/67/67 66/66/66 65/65/65
f 68/68/68 66/66/66 67/67/67
f 69/69/69 68/68/68 67/67/67
f 72/72/72 71/71/71 70/70/70
f 73/73/73 72/72/72 70/70/70
f 76/76/76 75/75/75 74/74/74
f 77/77/77 76/76/76 74/74/74
f 80/80/80 79/79/79 78/78/78
f 81/81/81 80/80/80 78/78/78
f 84/84/84 83/83/83 82/82/82
f 85/85/85 84/84/84 82/82/82
f 88/88/88 87/87/87 86/86/86
f 89/89/89 88/88/88 86/86/86
f 92/92/92 91/91/91 90/90/90
f 93/93/93 92/92/92 90/90/90
f 96/96/96 95/95/95 94/94/94
f 97/97/97 96/96/96 94/94/94
f 100/100/100 99/99/99 98/98/98
f 101/101/101 100/100/100 98/98/98
f 104/104/104 103/103/103 102/102/102
f 105/105/105 104/104/104 102/102/102
f 108/108/108 107/107/107 106/106/106
f 109/109/109 108/108/108 106/106/106
f 112/112/112 111/111/111 110/110/110
f 113/113/113 112/112/112 110/110/110
f 116/116/116 115/115/115 114/114/114
f 117/117/117 116/116/116 114/114/114
f 120/120/120 119/119/119 118/118/118
f 119/119/119 121/121/121 118/118/118
f 122/122/122 121/121/121 119/119/119
f 123/123/123 122/122/122 119/119/119
f 124/124/124 122/122/122 123/123/123
f 125/125/125 124/124/124 123/123/123
f 128/128/128 127/127/127 126/126/126
f 127/127/127 129/129/129 126/126/126
f 130/130/130 129/129/129 127/127/127
f 131/131/131 130/130/130 127/127/127
f 132/132/132 130/130/130 131/131/131
f 133/133/133 132/132/132 131/131/131
f 136/136/136 135/135/135 134/134/134
f 135/135/135 137/137/137 134/134/134
f 138/138/138 137/137/137 135/135/135
f 141/141/141 140/140/140 139/139/139
f 142/142/142 141/141/141 139/139/139
f 145/145/145 144/144/144 143/143/143
f 146/146/146 145/145/145 143/143/143
f 149/149/149 148/148/148 147/147/147
f 150/150/150 149/149/149 147/147/147
