g lava-brick
v 0.1933863 0.33079 0.03178323
v 0.3508308 -0.08145855 0.1051138
v -0.02385376 -0.1851951 0.3263967
v -0.1936866 0.2047803 0.1898144
v -0.1936866 0.2047803 0.1898144
v -0.02385376 -0.1851951 0.3263967
v -0.2107723 -0.324497 -0.05540499
v -0.3336624 0.1135035 -0.05815439
v -0.3336624 0.1135035 -0.05815439
v -0.2107723 -0.324497 -0.05540499
v 0.1867892 -0.1974476 -0.1947462
v 0.04102215 0.21724 -0.2794373
v 0.04102215 0.21724 -0.2794373
v 0.1867892 -0.1974476 -0.1947462
v 0.3508308 -0.08145855 0.1051138
v 0.1933863 0.33079 0.03178323
v 0.3508308 -0.08145855 0.1051138
v 0.1867892 -0.1974476 -0.1947462
v -0.2107723 -0.324497 -0.05540499
v -0.02385376 -0.1851951 0.3263967
v 0.04102215 0.21724 -0.2794373
v 0.1933863 0.33079 0.03178323
v -0.1936866 0.2047803 0.1898144
v -0.3336624 0.1135035 -0.05815439
vt 0.3325963 0.6676429
vt 0.6658587 0.665749
vt 0.6658586 0.3333474
vt 0.3331876 0.3432209
vt 0.7151009 0.3374635
vt 0.6658587 0.6666439
vt 1 0.6666439
vt 0.9383525 0.3333474
vt 0.3325963 0.3374204
vt 0.3325963 0
vt 0.005602306 0.008650802
vt 0 0.3405762
vt 0 0.3405762
vt 0.002767899 0.6740836
vt 0.2723663 0.6739763
vt 0.2723662 0.3406835
vt 0.3325963 0
vt 0.3445248 0.2687003
vt 0.6668129 0.3333474
vt 0.6668129 1.110391E-08
vt 0.9382801 0.6666616
vt 0.6658587 0.666644
vt 0.7151999 0.9882832
vt 0.9382801 1
vn 0.3259314 0.3615393 0.873532
vn 0.3259314 0.3615393 0.873532
vn 0.3259314 0.3615393 0.873532
vn 0.3259314 0.3615393 0.873532
vn -0.834482 -0.2092403 0.5097632
vn -0.834482 -0.2092403 0.5097632
vn -0.834482 -0.2092403 0.5097632
vn -0.834482 -0.2092403 0.5097632
vn -0.3623674 -0.2073534 -0.9086774
vn -0.3623674 -0.2073534 -0.9086774
vn -0.3623674 -0.2073534 -0.9086774
vn -0.3623674 -0.2073534 -0.9086774
vn 0.8343582 0.2084178 -0.5103022
vn 0.8343582 0.2084178 -0.5103022
vn 0.8343582 0.2084178 -0.5103022
vn 0.8343582 0.2084178 -0.5103022
vn 0.3519553 -0.9215509 0.1639249
vn 0.3519553 -0.9215509 0.1639249
vn 0.3519553 -0.9215509 0.1639249
vn 0.3519553 -0.9215509 0.1639249
vn -0.3542932 0.9225807 -0.1527126
vn -0.3542932 0.9225807 -0.1527126
vn -0.3542932 0.9225807 -0.1527126
vn -0.3542932 0.9225807 -0.1527126
g lava-brick_0
f 3/3/3 2/2/2 1/1/1
f 4/4/4 3/3/3 1/1/1
f 7/7/7 6/6/6 5/5/5
f 8/8/8 7/7/7 5/5/5
f 11/11/11 10/10/10 9/9/9
f 12/12/12 11/11/11 9/9/9
f 15/15/15 14/14/14 13/13/13
f 16/16/16 15/15/15 13/13/13
f 19/19/19 18/18/18 17/17/17
f 20/20/20 19/19/19 17/17/17
f 23/23/23 22/22/22 21/21/21
f 24/24/24 23/23/23 21/21/21
