g floe-deep
v 0.7688311 0.3841999 -0.7229208
v -0.371891 0.3842002 -1.55748
v 0.3355033 0.3842 -1.266297
v -0.7928276 0.3842001 -0.7229208
v 0.5955923 0.3841996 0.6795183
v -0.6133933 0.3841999 0.7600586
v 0.6255293 0.3841997 1.110831
v 0.4175635 0.3841997 1.289372
v 0.03136948 0.3841997 1.70593
v 0.03377222 -0.1355519 1.622991
v 0.8401725 -0.135552 2.84123
v -0.3513685 -0.135552 3.522039
v -0.9419058 -0.1355516 1.69156
v 0.4485422 -0.1355519 1.23252
v -0.6488472 -0.1355516 0.725198
v -1.370141 -0.1355514 0.2651783
v -1.417561 -0.1355513 -1.227897
v -0.8388169 -0.1355514 -0.6824025
v 0.6725122 -0.1355519 1.067021
v 1.268876 -0.135552 1.284361
v 1.321202 -0.1355519 0.04112523
v 0.6311228 -0.1355518 0.6487515
v -0.6598729 -0.1355511 -2.648177
v -0.3931653 -0.1355514 -1.474541
v 1.545976 -0.1355518 -1.38878
v 0.8145334 -0.1355517 -0.6824025
v 0.3557629 -0.1355516 -1.198159
v 0.6122604 -0.1355513 -2.424654
v -1.417561 -0.1355513 -1.227897
v -1.137561 -0.7403591 -1.02166
v -0.6598729 -0.1355511 -2.648177
v -0.2549787 -2.015184 -0.8175905
v -0.2381232 -1.313155 -1.446211
v -0.7726311 -1.361115 -0.7665619
v -0.7548317 -0.771057 1.557673
v -0.9419058 -0.1355516 1.69156
v -0.3513685 -0.135552 3.522039
v -0.2765654 -1.023373 3.16944
v 0.6519666 -0.9250274 2.572974
v -0.203088 -1.319352 2.249331
v -0.5236011 -0.8182455 -2.271969
v -1.137561 -0.7403591 -1.02166
v -0.2381232 -1.313155 -1.446211
v 0.7993176 -1.132649 -0.1063894
v 0.3701959 -1.76757 -0.4437379
v 0.4680308 -1.571371 0.803189
v -0.6598729 -0.1355511 -2.648177
v -1.137561 -0.7403591 -1.02166
v -0.5236011 -0.8182455 -2.271969
v -0.7726311 -1.361115 -0.7665619
v -0.2381232 -1.313155 -1.446211
v -1.137561 -0.7403591 -1.02166
v -0.6523052 -1.359736 0.6761759
v -1.370141 -0.1355514 0.2651783
v -0.7548317 -0.771057 1.557673
v -0.3594697 -1.798541 1.010422
v -0.5398623 -2.012196 -0.2131396
v -0.2381232 -1.313155 -1.446211
v -0.2549787 -2.015184 -0.8175905
v 0.3701959 -1.76757 -0.4437379
v -0.203088 -1.319352 2.249331
v 0.0836694 -1.612324 1.625935
v -0.3594697 -1.798541 1.010422
v 0.7993176 -1.132649 -0.1063894
v 1.321202 -0.1355519 0.04112523
v 1.115693 -0.7368534 -1.02123
v -0.203088 -1.319352 2.249331
v 0.6519666 -0.9250274 2.572974
v 0.0836694 -1.612324 1.625935
v -0.2381232 -1.313155 -1.446211
v 0.4878403 -0.7608847 -1.832028
v -0.5236011 -0.8182455 -2.271969
v 1.012279 -0.7541807 1.197252
v 1.268876 -0.135552 1.284361
v 1.321202 -0.1355519 0.04112523
v 1.115693 -0.7368534 -1.02123
v 0.3701959 -1.76757 -0.4437379
v 0.7993176 -1.132649 -0.1063894
v 1.545976 -0.1355518 -1.38878
v 1.115693 -0.7368534 -1.02123
v 1.321202 -0.1355519 0.04112523
v -0.5398623 -2.012196 -0.2131396
v -0.2549787 -2.015184 -0.8175905
v -0.7726311 -1.361115 -0.7665619
v -1.370141 -0.1355514 0.2651783
v -1.137561 -0.7403591 -1.02166
v -1.417561 -0.1355513 -1.227897
v -0.7548317 -0.771057 1.557673
v -0.3594697 -1.798541 1.010422
v -0.6523052 -1.359736 0.6761759
v -0.9419058 -0.1355516 1.69156
v -0.7548317 -0.771057 1.557673
v -1.370141 -0.1355514 0.2651783
v 0.0836694 -1.612324 1.625935
v 0.4680308 -1.571371 0.803189
v -0.3594697 -1.798541 1.010422
v -0.5398623 -2.012196 -0.2131396
v 0.4680308 -1.571371 0.803189
v 0.3701959 -1.76757 -0.4437379
v -0.3594697 -1.798541 1.010422
v -0.7548317 -0.771057 1.557673
v -0.203088 -1.319352 2.249331
v 0.4680308 -1.571371 0.803189
v 0.0836694 -1.612324 1.625935
v 1.012279 -0.7541807 1.197252
v 0.4878403 -0.7608847 -1.832028
v 1.115693 -0.7368534 -1.02123
v 0.6122604 -0.1355513 -2.424654
v 0.6519666 -0.9250274 2.572974
v -0.2765654 -1.023373 3.16944
v 0.8401725 -0.135552 2.84123
v -0.5398623 -2.012196 -0.2131396
v 0.3701959 -1.76757 -0.4437379
v -0.2549787 -2.015184 -0.8175905
v 1.012279 -0.7541807 1.197252
v 0.0836694 -1.612324 1.625935
v 0.6519666 -0.9250274 2.572974
v 0.6122604 -0.1355513 -2.424654
v 1.115693 -0.7368534 -1.02123
v 1.545976 -0.1355518 -1.38878
v 0.8401725 -0.135552 2.84123
v -0.2765654 -1.023373 3.16944
v -0.3513685 -0.135552 3.522039
v -0.6523052 -1.359736 0.6761759
v -1.137561 -0.7403591 -1.02166
v -1.370141 -0.1355514 0.2651783
v -0.6523052 -1.359736 0.6761759
v -0.5398623 -2.012196 -0.2131396
v -0.7726311 -1.361115 -0.7665619
v -0.7726311 -1.361115 -0.7665619
v -1.137561 -0.7403591 -1.02166
v -0.6523052 -1.359736 0.6761759
v 1.268876 -0.135552 1.284361
v 0.6519666 -0.9250274 2.572974
v 0.8401725 -0.135552 2.84123
v 1.268876 -0.135552 1.284361
v 1.012279 -0.7541807 1.197252
v 0.6519666 -0.9250274 2.572974
v -0.7928276 0.3842001 -0.7229208
v -0.6133933 0.3841999 0.7600586
v -0.6488472 -0.1355516 0.725198
v -0.8388169 -0.1355514 -0.6824025
v 0.3355033 0.3842 -1.266297
v -0.371891 0.3842002 -1.55748
v -0.3931653 -0.1355514 -1.474541
v 0.3557629 -0.1355516 -1.198159
v 0.5955923 0.3841996 0.6795183
v 0.7688311 0.3841999 -0.7229208
v 0.8145334 -0.1355517 -0.6824025
v 0.6311228 -0.1355518 0.6487515
v -0.6133933 0.3841999 0.7600586
v 0.03136948 0.3841997 1.70593
v 0.03377222 -0.1355519 1.622991
v -0.6488472 -0.1355516 0.725198
v -0.371891 0.3842002 -1.55748
v -0.7928276 0.3842001 -0.7229208
v -0.8388169 -0.1355514 -0.6824025
v -0.3931653 -0.1355514 -1.474541
v 0.7688311 0.3841999 -0.7229208
v 0.3355033 0.3842 -1.266297
v 0.3557629 -0.1355516 -1.198159
v 0.8145334 -0.1355517 -0.6824025
v 0.6255293 0.3841997 1.110831
v 0.5955923 0.3841996 0.6795183
v 0.6311228 -0.1355518 0.6487515
v 0.6725122 -0.1355519 1.067021
v 0.03136948 0.3841997 1.70593
v 0.4175635 0.3841997 1.289372
v 0.4485422 -0.1355519 1.23252
v 0.03377222 -0.1355519 1.622991
v 0.4175635 0.3841997 1.289372
v 0.6255293 0.3841997 1.110831
v 0.6725122 -0.1355519 1.067021
v 0.4485422 -0.1355519 1.23252
v -0.7548317 -0.771057 1.557673
v -0.3513685 -0.135552 3.522039
v -0.2765654 -1.023373 3.16944
v -0.203088 -1.319352 2.249331
v -0.6598729 -0.1355511 -2.648177
v -0.5236011 -0.8182455 -2.271969
v 0.4878403 -0.7608847 -1.832028
v 0.6122604 -0.1355513 -2.424654
v 1.321202 -0.1355519 0.04112523
v 0.7993176 -1.132649 -0.1063894
v 0.4680308 -1.571371 0.803189
v 1.012279 -0.7541807 1.197252
v -0.2381232 -1.313155 -1.446211
v 0.3701959 -1.76757 -0.4437379
v 1.115693 -0.7368534 -1.02123
v 0.4878403 -0.7608847 -1.832028
vt 0.9432306 0.2737002
vt 0.8112319 0.3552912
vt 0.891152 0.3294698
vt 0.7722965 0.260342
vt 0.9362644 0.118712
vt 0.804622 0.09955442
vt 0.9432306 0.07175764
vt 0.9219945 0.05043607
vt 0.8832861 0.0015377
vt 0.6381749 0.2132834
vt 0.7400291 0.08937397
vt 0.6176136 0.0015377
vt 0.5324016 0.1947504
vt 0.6790498 0.2606201
vt 0.5534658 0.3035998
vt 0.4694895 0.3456705
vt 0.4474086 0.5081858
vt 0.5167858 0.4551667
vt 0.701635 0.2812291
vt 0.7692211 0.264245
vt 0.7608615 0.4006055
vt 0.6923803 0.3264381
vt 0.5140739 0.671865
vt 0.5564861 0.5467169
vt 0.7692211 0.5593035
vt 0.6973401 0.4738834
vt 0.6414014 0.5250129
vt 0.6555279 0.6618564
vt 0.04577867 0.1325029
vt 0.1013184 0.1804506
vt 0.1722974 0.0015377
vt 0.2107486 0.2461175
vt 0.2168135 0.1740488
vt 0.1568076 0.2270888
vt 0.08925559 0.4291012
vt 0.02698475 0.4544832
vt 0.1104445 0.6346466
vt 0.1595996 0.5527027
vt 0.2406712 0.5342785
vt 0.1733041 0.4817348
vt 0.19936 0.08465409
vt 0.1013184 0.1804506
vt 0.2168135 0.1740488
vt 0.3208061 0.2985511
vt 0.25703 0.2678573
vt 0.2565094 0.3690486
vt 0.1722974 0.0015377
vt 0.1013184 0.1804506
vt 0.19936 0.08465409
vt 0.1568076 0.2270888
vt 0.2168135 0.1740488
vt 0.1013184 0.1804506
vt 0.1373421 0.3427404
vt 0.0015377 0.292182
vt 0.08925559 0.4291012
vt 0.1827219 0.3702188
vt 0.1925032 0.2805583
vt 0.2168135 0.1740488
vt 0.2107486 0.2461175
vt 0.25703 0.2678573
vt 0.1733041 0.4817348
vt 0.2087945 0.428879
vt 0.1827219 0.3702188
vt 0.3208061 0.2985511
vt 0.4443332 0.3255287
vt 0.3677246 0.2034726
vt 0.1733041 0.4817348
vt 0.2406712 0.5342785
vt 0.2087945 0.428879
vt 0.2168135 0.1740488
vt 0.2975351 0.1222762
vt 0.19936 0.08465409
vt 0.3331156 0.4335444
vt 0.4000387 0.474112
vt 0.4443332 0.3255287
vt 0.3677246 0.2034726
vt 0.25703 0.2678573
vt 0.3208061 0.2985511
vt 0.4443331 0.1487163
vt 0.3677246 0.2034726
vt 0.4443332 0.3255287
vt 0.1925032 0.2805583
vt 0.2107486 0.2461175
vt 0.1568076 0.2270888
vt 0.0015377 0.292182
vt 0.1013184 0.1804506
vt 0.04577867 0.1325029
vt 0.08925559 0.4291012
vt 0.1827219 0.3702188
vt 0.1373421 0.3427404
vt 0.02698475 0.4544832
vt 0.08925559 0.4291012
vt 0.0015377 0.292182
vt 0.2087945 0.428879
vt 0.2565094 0.3690486
vt 0.1827219 0.3702188
vt 0.1925032 0.2805583
vt 0.2565094 0.3690486
vt 0.25703 0.2678573
vt 0.1827219 0.3702188
vt 0.08925559 0.4291012
vt 0.1733041 0.4817348
vt 0.2565094 0.3690486
vt 0.2087945 0.428879
vt 0.3331156 0.4335444
vt 0.2975351 0.1222762
vt 0.3677246 0.2034726
vt 0.3306201 0.02515118
vt 0.2406712 0.5342785
vt 0.1595996 0.5527027
vt 0.2748083 0.6227852
vt 0.1925032 0.2805583
vt 0.25703 0.2678573
vt 0.2107486 0.2461175
vt 0.3331156 0.4335444
vt 0.2087945 0.428879
vt 0.2406712 0.5342785
vt 0.3306201 0.02515118
vt 0.3677246 0.2034726
vt 0.4443331 0.1487163
vt 0.2748083 0.6227852
vt 0.1595996 0.5527027
vt 0.1104445 0.6346466
vt 0.1373421 0.3427404
vt 0.1013184 0.1804506
vt 0.0015377 0.292182
vt 0.1373421 0.3427404
vt 0.1925032 0.2805583
vt 0.1568076 0.2270888
vt 0.1568076 0.2270888
vt 0.1013184 0.1804506
vt 0.1373421 0.3427404
vt 0.4000387 0.474112
vt 0.2406712 0.5342785
vt 0.2748083 0.6227852
vt 0.4000387 0.474112
vt 0.3331156 0.4335444
vt 0.2406712 0.5342785
vt 0.4443332 0.9206827
vt 0.4443332 0.738041
vt 0.3885029 0.7627348
vt 0.3845741 0.8876662
vt 0.253835 0.9703249
vt 0.3480301 0.9984623
vt 0.340459 0.9444268
vt 0.2869785 0.9176968
vt 0.222398 0.7217504
vt 0.1983745 0.8904651
vt 0.2588032 0.8686152
vt 0.2770264 0.7512763
vt 0.4443332 0.738041
vt 0.3611856 0.637722
vt 0.3477226 0.6871973
vt 0.3885029 0.7627348
vt 0.3480301 0.9984623
vt 0.4443332 0.9206827
vt 0.3845741 0.8876662
vt 0.340459 0.9444268
vt 0.1983745 0.8904651
vt 0.253835 0.9703249
vt 0.2869785 0.9176968
vt 0.2588032 0.8686152
vt 0.258009 0.6722466
vt 0.222398 0.7217504
vt 0.2770264 0.7512763
vt 0.2898997 0.7175326
vt 0.3611856 0.637722
vt 0.2869887 0.651912
vt 0.309348 0.7055139
vt 0.3477226 0.6871973
vt 0.2869887 0.651912
vt 0.258009 0.6722466
vt 0.2898997 0.7175326
vt 0.309348 0.7055139
vt 0.08925559 0.4291012
vt 0.1104445 0.6346466
vt 0.1595996 0.5527027
vt 0.1733041 0.4817348
vt 0.1722974 0.0015377
vt 0.19936 0.08465409
vt 0.2975351 0.1222762
vt 0.3306201 0.02515118
vt 0.4443332 0.3255287
vt 0.3208061 0.2985511
vt 0.2565094 0.3690486
vt 0.3331156 0.4335444
vt 0.2168135 0.1740488
vt 0.25703 0.2678573
vt 0.3677246 0.2034726
vt 0.2975351 0.1222762
vn 1.145142E-07 1 1.718069E-07
vn 1.145142E-07 1 1.718069E-07
vn 1.145142E-07 1 1.718069E-07
vn 1.145142E-07 1 1.718069E-07
vn 1.789265E-07 1 1.442218E-07
vn 1.789265E-07 1 1.442218E-07
vn 1.457309E-07 1 0
vn 1.880655E-07 1 0
vn 1.880655E-07 1 0
vn 0 1 0
vn 0 1 0
vn 0 1 0
vn 2.384867E-07 1 1.22275E-07
vn 0 1 0
vn 1.181195E-07 1 1.180797E-07
vn 1.181195E-07 1 1.180797E-07
vn 1.51312E-07 1 1.503335E-07
vn 1.51312E-07 1 1.503335E-07
vn 1.676514E-07 1 1.084481E-07
vn 1.676514E-07 1 1.084481E-07
vn 1.671052E-07 1 1.313368E-07
vn 1.671052E-07 1 1.313368E-07
vn 1.845075E-07 1 2.538424E-07
vn 1.845075E-07 1 2.538424E-07
vn 1.671052E-07 1 1.313368E-07
vn 1.671052E-07 1 1.313368E-07
vn 1.26986E-07 1 1.817079E-07
vn 1.26986E-07 1 1.817079E-07
vn -0.7668616 -0.4945273 -0.4091038
vn -0.7668616 -0.4945273 -0.4091038
vn -0.7668616 -0.4945273 -0.4091038
vn -0.6698135 -0.4863387 -0.5610921
vn -0.6698135 -0.4863387 -0.5610921
vn -0.6698135 -0.4863387 -0.5610921
vn -0.8997083 -0.325999 0.2902579
vn -0.8997083 -0.325999 0.2902579
vn -0.8997083 -0.325999 0.2902579
vn 0.2971022 -0.9018033 0.3138169
vn 0.2971022 -0.9018033 0.3138169
vn 0.2971022 -0.9018033 0.3138169
vn -0.6009059 -0.7599612 -0.2477316
vn -0.6009059 -0.7599612 -0.2477316
vn -0.6009059 -0.7599612 -0.2477316
vn 0.8220403 -0.5688798 0.02501285
vn 0.8220403 -0.5688798 0.02501285
vn 0.8220403 -0.5688798 0.02501285
vn -0.8389516 -0.3813878 -0.3882056
vn -0.8389516 -0.3813878 -0.3882056
vn -0.8389516 -0.3813878 -0.3882056
vn -0.6192945 -0.5810691 -0.5280464
vn -0.6192945 -0.5810691 -0.5280464
vn -0.6192945 -0.5810691 -0.5280464
vn -0.8731818 -0.4460943 0.1963501
vn -0.8731818 -0.4460943 0.1963501
vn -0.8731818 -0.4460943 0.1963501
vn -0.8789988 -0.4306094 0.2047845
vn -0.8789988 -0.4306094 0.2047845
vn 0.5780202 -0.5520134 -0.6009775
vn 0.5780202 -0.5520134 -0.6009775
vn 0.5780202 -0.5520134 -0.6009775
vn -0.1304047 -0.9190537 0.3719343
vn -0.1304047 -0.9190537 0.3719343
vn -0.1304047 -0.9190537 0.3719343
vn 0.8756475 -0.4728518 0.0982471
vn 0.8756475 -0.4728518 0.0982471
vn 0.8756475 -0.4728518 0.0982471
vn 0.2042294 -0.8464509 0.4917432
vn 0.2042294 -0.8464509 0.4917432
vn 0.2042294 -0.8464509 0.4917432
vn 0.2890625 -0.7737625 -0.5636794
vn 0.2890625 -0.7737625 -0.5636794
vn 0.2890625 -0.7737625 -0.5636794
vn 0.9210556 -0.3874969 0.03876545
vn 0.9210556 -0.3874969 0.03876545
vn 0.9210556 -0.3874969 0.03876545
vn 0.819119 -0.5725192 0.03557803
vn 0.819119 -0.5725192 0.03557803
vn 0.819119 -0.5725192 0.03557803
vn 0.8426031 -0.5219924 0.132453
vn 0.8426031 -0.5219924 0.132453
vn 0.8426031 -0.5219924 0.132453
vn -0.7477306 -0.5645027 -0.3496221
vn -0.7477306 -0.5645027 -0.3496221
vn -0.7477306 -0.5645027 -0.3496221
vn -0.9108135 -0.4118033 0.02892688
vn -0.9108135 -0.4118033 0.02892688
vn -0.9108135 -0.4118033 0.02892688
vn -0.8774906 -0.439675 0.191562
vn -0.8774906 -0.439675 0.191562
vn -0.8774906 -0.439675 0.191562
vn -0.9060901 -0.3240371 0.2720307
vn -0.9060901 -0.3240371 0.2720307
vn -0.9060901 -0.3240371 0.2720307
vn 0.283489 -0.9552108 0.08489025
vn 0.283489 -0.9552108 0.08489025
vn 0.2891755 -0.9490947 0.1248875
vn 0.2891755 -0.9490947 0.1248875
vn 0.2891755 -0.9490947 0.1248875
vn 0.2891755 -0.9490947 0.1248875
vn -0.8321495 -0.4737369 0.2882716
vn -0.8321495 -0.4737369 0.2882716
vn -0.8321495 -0.4737369 0.2882716
vn 0.7184745 -0.6253489 0.304521
vn 0.7184745 -0.6253489 0.304521
vn 0.7184745 -0.6253489 0.304521
vn 0.6479338 -0.587898 -0.4843117
vn 0.6479338 -0.587898 -0.4843117
vn 0.6479338 -0.587898 -0.4843117
vn 0.5275789 -0.3833615 0.7580861
vn 0.5275789 -0.3833615 0.7580861
vn 0.5275789 -0.3833615 0.7580861
vn 0.2902532 -0.9464339 0.1414778
vn 0.2902532 -0.9464339 0.1414778
vn 0.2902532 -0.9464339 0.1414778
vn 0.698928 -0.7088511 0.0950248
vn 0.698928 -0.7088511 0.0950248
vn 0.698928 -0.7088511 0.0950248
vn 0.541002 -0.6852123 -0.4876483
vn 0.541002 -0.6852123 -0.4876483
vn 0.541002 -0.6852123 -0.4876483
vn 0.474779 -0.2900108 0.8309505
vn 0.474779 -0.2900108 0.8309505
vn 0.474779 -0.2900108 0.8309505
vn -0.8707014 -0.486611 0.07133617
vn -0.8707014 -0.486611 0.07133617
vn -0.8707014 -0.486611 0.07133617
vn -0.9582576 -0.2744327 0.08018199
vn -0.9582576 -0.2744327 0.08018199
vn -0.9582576 -0.2744327 0.08018199
vn -0.8726113 -0.482893 0.07323832
vn -0.8726113 -0.482893 0.07323832
vn -0.8726113 -0.482893 0.07323832
vn 0.9182349 -0.3048163 0.2528474
vn 0.9182349 -0.3048163 0.2528474
vn 0.9182349 -0.3048163 0.2528474
vn 0.8980969 -0.398665 0.1857098
vn 0.8980969 -0.398665 0.1857098
vn 0.8980969 -0.398665 0.1857098
vn -0.9888979 0.07816622 0.126377
vn -0.9888979 0.07816622 0.126377
vn -0.9888979 0.07816622 0.126377
vn -0.9888979 0.07816622 0.126377
vn 0.3598222 -0.1345352 -0.9232704
vn 0.3598222 -0.1345352 -0.9232704
vn 0.3598222 -0.1345352 -0.9232704
vn 0.3598222 -0.1345352 -0.9232704
vn 0.9885392 0.07845997 0.1289738
vn 0.9885392 0.07845997 0.1289738
vn 0.9885392 0.07845997 0.1289738
vn 0.9885392 0.07845997 0.1289738
vn -0.8108843 -0.0403772 0.5838118
vn -0.8108843 -0.0403772 0.5838118
vn -0.8108843 -0.0403772 0.5838118
vn -0.8108843 -0.0403772 0.5838118
vn -0.8825739 0.001268817 -0.4701719
vn -0.8825739 0.001268817 -0.4701719
vn -0.8825739 0.001268817 -0.4701719
vn -0.8825739 0.001268817 -0.4701719
vn 0.7647058 -0.01880182 -0.6441053
vn 0.7647058 -0.01880182 -0.6441053
vn 0.7647058 -0.01880182 -0.6441053
vn 0.7647058 -0.01880182 -0.6441053
vn 0.9929054 0.08479493 -0.08335898
vn 0.9929054 0.08479493 -0.08335898
vn 0.9929054 0.08479493 -0.08335898
vn 0.9929054 0.08479493 -0.08335898
vn 0.7079395 -0.07175334 0.7026188
vn 0.7079395 -0.07175334 0.7026188
vn 0.7079395 -0.07175334 0.7026188
vn 0.7079395 -0.07175334 0.7026188
vn 0.6227651 -0.0290073 0.781871
vn 0.6227651 -0.0290073 0.781871
vn 0.6227651 -0.0290073 0.781871
vn 0.6227651 -0.0290073 0.781871
vn -0.9125381 -0.3470166 0.2164573
vn -0.9125381 -0.3470166 0.2164573
vn -0.9125381 -0.3470166 0.2164573
vn -0.9125381 -0.3470166 0.2164573
vn 0.241345 -0.5761904 -0.7808695
vn 0.241345 -0.5761904 -0.7808695
vn 0.241345 -0.5761904 -0.7808695
vn 0.241345 -0.5761904 -0.7808695
vn 0.86125 -0.5081356 0.006827084
vn 0.86125 -0.5081356 0.006827084
vn 0.86125 -0.5081356 0.006827084
vn 0.86125 -0.5081356 0.006827084
vn 0.4671865 -0.7341255 -0.492744
vn 0.4671865 -0.7341255 -0.492744
vn 0.4671865 -0.7341255 -0.492744
vn 0.4671865 -0.7341255 -0.492744
g floe-deep_0
f 3/3/3 2/2/2 1/1/1
f 2/2/2 4/4/4 1/1/1
f 1/1/1 4/4/4 5/5/5
f 4/4/4 6/6/6 5/5/5
f 5/5/5 6/6/6 7/7/7
f 6/6/6 8/8/8 7/7/7
f 6/6/6 9/9/9 8/8/8
f 12/12/12 11/11/11 10/10/10
f 13/13/13 12/12/12 10/10/10
f 11/11/11 14/14/14 10/10/10
f 15/15/15 13/13/13 10/10/10
f 13/13/13 15/15/15 16/16/16
f 17/17/17 16/16/16 15/15/15
f 18/18/18 17/17/17 15/15/15
f 19/19/19 14/14/14 11/11/11
f 20/20/20 19/19/19 11/11/11
f 20/20/20 21/21/21 19/19/19
f 21/21/21 22/22/22 19/19/19
f 23/23/23 17/17/17 18/18/18
f 24/24/24 23/23/23 18/18/18
f 21/21/21 25/25/25 22/22/22
f 25/25/25 26/26/26 22/22/22
f 23/23/23 24/24/24 27/27/27
f 26/26/26 25/25/25 27/27/27
f 28/28/28 23/23/23 27/27/27
f 25/25/25 28/28/28 27/27/27
g floe-deep_1
f 31/31/31 30/30/30 29/29/29
f 34/34/34 33/33/33 32/32/32
f 37/37/37 36/36/36 35/35/35
f 40/40/40 39/39/39 38/38/38
f 43/43/43 42/42/42 41/41/41
f 46/46/46 45/45/45 44/44/44
f 49/49/49 48/48/48 47/47/47
f 52/52/52 51/51/51 50/50/50
f 55/55/55 54/54/54 53/53/53
f 57/57/57 56/56/56 53/53/53
f 60/60/60 59/59/59 58/58/58
f 63/63/63 62/62/62 61/61/61
f 66/66/66 65/65/65 64/64/64
f 69/69/69 68/68/68 67/67/67
f 72/72/72 71/71/71 70/70/70
f 75/75/75 74/74/74 73/73/73
f 78/78/78 77/77/77 76/76/76
f 81/81/81 80/80/80 79/79/79
f 84/84/84 83/83/83 82/82/82
f 87/87/87 86/86/86 85/85/85
f 90/90/90 89/89/89 88/88/88
f 93/93/93 92/92/92 91/91/91
f 96/96/96 95/95/95 94/94/94
f 98/98/98 96/96/96 97/97/97
f 99/99/99 98/98/98 97/97/97
f 102/102/102 101/101/101 100/100/100
f 105/105/105 104/104/104 103/103/103
f 108/108/108 107/107/107 106/106/106
f 111/111/111 110/110/110 109/109/109
f 114/114/114 113/113/113 112/112/112
f 117/117/117 116/116/116 115/115/115
f 120/120/120 119/119/119 118/118/118
f 123/123/123 122/122/122 121/121/121
f 126/126/126 125/125/125 124/124/124
f 129/129/129 128/128/128 127/127/127
f 132/132/132 131/131/131 130/130/130
f 135/135/135 134/134/134 133/133/133
f 138/138/138 137/137/137 136/136/136
f 141/141/141 140/140/140 139/139/139
f 142/142/142 141/141/141 139/139/139
f 145/145/145 144/144/144 143/143/143
f 146/146/146 145/145/145 143/143/143
f 149/149/149 148/148/148 147/147/147
f 150/150/150 149/149/149 147/147/147
f 153/153/153 152/152/152 151/151/151
f 154/154/154 153/153/153 151/151/151
f 157/157/157 156/156/156 155/155/155
f 158/158/158 157/157/157 155/155/155
f 161/161/161 160/160/160 159/159/159
f 162/162/162 161/161/161 159/159/159
f 165/165/165 164/164/164 163/163/163
f 166/166/166 165/165/165 163/163/163
f 169/169/169 168/168/168 167/167/167
f 170/170/170 169/169/169 167/167/167
f 173/173/173 172/172/172 171/171/171
f 174/174/174 173/173/173 171/171/171
f 177/177/177 176/176/176 175/175/175
f 178/178/178 177/177/177 175/175/175
f 181/181/181 180/180/180 179/179/179
f 182/182/182 181/181/181 179/179/179
f 185/185/185 184/184/184 183/183/183
f 186/186/186 185/185/185 183/183/183
f 189/189/189 188/188/188 187/187/187
f 190/190/190 189/189/189 187/187/187
