g Bow
v 0.1106417 0.1252379 -0.7129356
v 0.09928778 0.1118565 -0.639299
v 0.1042807 0.1191729 -0.7160038
v 0.1058789 0.1214513 -0.6338075
v 0.09928778 0.1118565 -0.639299
v 0.08736299 0.1044846 -0.5534653
v 0.08054173 0.0913597 -0.5613802
v 0.1093527 0.1013458 -0.639389
v 0.1042807 0.1191729 -0.7160038
v 0.1162229 0.1067018 -0.7161103
v 0.01550972 0.02753698 -0.3791174
v 0.0279625 0.05954899 -0.3672031
v -0.03000992 -0.01431321 -0.2250541
v -0.01126899 0.03044961 -0.1802989
v -0.04377152 -0.02791838 -0.1384098
v -0.02605135 0.03698635 -0.1213442
v -0.0328259 -0.0393488 -0.1385075
v -0.01906429 -0.02574367 -0.2251519
v 0.03275694 -0.0244224 -0.1218716
v 0.02661667 -0.009114075 -0.1806376
v 0.02369736 0.01898672 -0.3791905
v 0.05630212 0.02995432 -0.3674562
v 0.08872936 0.08280946 -0.5614534
v 0.1022047 0.08898548 -0.5535978
v 0.1192709 0.1074663 -0.6339271
v 0.1162229 0.1067018 -0.7161103
v 0.1162229 0.1067018 -0.7161103
v 0.1225839 0.1127668 -0.7130422
v 0.00446914 0.02182511 -0.005977056
v -0.03825505 -0.0231736 0.04678651
v -0.01870658 -0.0004678467 0.0003035793
v -0.01746953 0.04355315 0.03729262
v -0.03825505 -0.0231736 0.04678651
v -0.01870658 -0.0004678467 0.0003035793
v -0.02727049 -0.03464505 0.04668839
v -0.003864814 -0.01596688 0.0001708201
v 0.04012547 -0.01658716 0.03677539
v 0.01931093 0.006326052 -0.006109512
v 0.1139884 0.1099355 -0.6316987
v 0.1089373 0.1151413 -0.6316237
v 0.1051256 0.106442 -0.6233832
v 0.1901247 0.1785511 0.561884
v 0.1819721 0.1757614 0.559167
v 0.1850826 0.1837656 0.5618774
v 0.1225839 0.1127668 -0.7130422
v 0.1058789 0.1214513 -0.6338075
v 0.1106417 0.1252379 -0.7129356
v 0.1192709 0.1074663 -0.6339271
v 0.1022047 0.08898548 -0.5535978
v 0.08736299 0.1044846 -0.5534653
v 0.0279625 0.05954899 -0.3672031
v 0.05630212 0.02995432 -0.3674562
v -0.01126899 0.03044961 -0.1802989
v 0.02661667 -0.009114075 -0.1806376
v -0.02605135 0.03698635 -0.1213442
v 0.03275694 -0.0244224 -0.1218716
v 0.006485254 0.02393875 -0.06933222
v 0.02132693 0.008439732 -0.06946512
v 0.00446914 0.02182511 -0.005977056
v 0.01931093 0.006326052 -0.006109512
v 0.1106417 0.1252379 -0.7129356
v 0.1042807 0.1191729 -0.7160038
v 0.1162229 0.1067018 -0.7161103
v 0.1225839 0.1127668 -0.7130422
v 0.006485254 0.02393875 -0.06933222
v 0.00446914 0.02182511 -0.005977056
v -0.01870658 -0.0004678467 0.0003035793
v -0.01894598 -0.0003566714 -0.08932144
v -0.02605135 0.03698635 -0.1213442
v -0.01894598 -0.0003566714 -0.08932144
v -0.04377152 -0.02791838 -0.1384098
v -0.004104277 -0.01585576 -0.0894542
v -0.0328259 -0.0393488 -0.1385075
v -0.01894598 -0.0003566714 -0.08932144
v -0.003864814 -0.01596688 0.0001708201
v -0.01870658 -0.0004678467 0.0003035793
v 0.02132693 0.008439732 -0.06946512
v 0.03275694 -0.0244224 -0.1218716
v -0.0328259 -0.0393488 -0.1385075
v -0.004104277 -0.01585576 -0.0894542
v 0.01931093 0.006326052 -0.006109512
v -0.003864814 -0.01596688 0.0001708201
v 0.01931093 0.006326052 -0.006109512
v -0.01746953 0.04355315 0.03729262
v 0.00446914 0.02182511 -0.005977056
v 0.04012547 -0.01658716 0.03677539
v 0.005695014 0.04587242 0.1178309
v 0.04358086 0.006308682 0.1174924
v 0.08347948 0.1104419 0.3289691
v 0.111819 0.08084729 0.3287157
v 0.1516313 0.1615914 0.4711255
v 0.166473 0.1460924 0.4709928
v 0.1809686 0.1866907 0.5508066
v 0.193409 0.1736993 0.5506957
v 0.2066363 0.1880789 0.6316124
v 0.1965972 0.1985627 0.6317022
v 0.08347948 0.1104419 0.3289691
v 0.1420833 0.1524319 0.4719687
v 0.06989128 0.077167 0.3309712
v 0.005695014 0.04587242 0.1178309
v -0.003719835 0.009652393 0.1686506
v -0.01746953 0.04355315 0.03729262
v -0.03825505 -0.0231736 0.04678651
v 0.007225811 -0.001778083 0.168553
v -0.02727049 -0.03464505 0.04668839
v 0.078079 0.06861675 0.3308982
v 0.04358086 0.006308682 0.1174924
v 0.04012547 -0.01658716 0.03677539
v 0.111819 0.08084729 0.3287157
v 0.166473 0.1460924 0.4709928
v 0.156925 0.1369328 0.4718362
v 0.1420833 0.1524319 0.4719687
v 0.184878 0.1655232 0.5517263
v 0.1724376 0.1785146 0.5518375
v 0.1890897 0.1913632 0.6329202
v 0.1991288 0.1808795 0.6328303
v 0.078079 0.06861675 0.3308982
v 0.156925 0.1369328 0.4718362
v 0.193409 0.1736993 0.5506957
v 0.184878 0.1655232 0.5517263
v 0.1991288 0.1808795 0.6328303
v 0.2066363 0.1880789 0.6316124
v 0.2066363 0.1880789 0.6316124
v 0.1991288 0.1808795 0.6328303
v 0.1890897 0.1913632 0.6329202
v 0.1965972 0.1985627 0.6317022
v 0.1724376 0.1785146 0.5518375
v 0.1965972 0.1985627 0.6317022
v 0.1890897 0.1913632 0.6329202
v 0.1809686 0.1866907 0.5508066
v 0.1516313 0.1615914 0.4711255
v 0.1420833 0.1524319 0.4719687
v 0.1139884 0.1099355 -0.6316987
v 0.1470225 0.1494648 -0.03467747
v 0.1089373 0.1151413 -0.6316237
v 0.15207 0.1442555 -0.0346968
v 0.1901247 0.1785511 0.561884
v 0.1850826 0.1837656 0.5618774
v 0.1089373 0.1151413 -0.6316237
v 0.1435618 0.1411134 -0.03190561
v 0.1051256 0.106442 -0.6233832
v 0.1470225 0.1494648 -0.03467747
v 0.1850826 0.1837656 0.5618774
v 0.1819721 0.1757614 0.559167
v 0.1051256 0.106442 -0.6233832
v 0.15207 0.1442555 -0.0346968
v 0.1139884 0.1099355 -0.6316987
v 0.1435618 0.1411134 -0.03190561
v 0.1819721 0.1757614 0.559167
v 0.1901247 0.1785511 0.561884
vt 0.08984566 0.08712808
vt 0.09584206 0.1150604
vt 0.09531671 0.085646
vt 0.08928239 0.1175657
vt 0.09584206 0.1150604
vt 0.0888155 0.1478362
vt 0.09640333 0.1443076
vt 0.1002824 0.1150402
vt 0.09531671 0.085646
vt 0.1005853 0.08562209
vt 0.09679292 0.2118389
vt 0.08179954 0.2174793
vt 0.09642287 0.2694277
vt 0.07671294 0.2882272
vt 0.09649672 0.3023323
vt 0.06442097 0.3108353
vt 0.1013257 0.3023103
vt 0.1012518 0.2694058
vt 0.1339503 0.3107167
vt 0.121507 0.2881512
vt 0.1004051 0.2118225
vt 0.1153066 0.2174225
vt 0.1000155 0.1442912
vt 0.1063634 0.1478065
vt 0.1051164 0.1175388
vt 0.1005853 0.08562209
vt 0.1005853 0.08562209
vt 0.1039655 0.08710415
vt 0.08044022 0.3660837
vt 0.09767473 0.384445
vt 0.09677206 0.3674401
vt 0.06626375 0.3827806
vt 0.09767473 0.384445
vt 0.09677206 0.3674401
vt 0.1025209 0.3844231
vt 0.10332 0.3674104
vt 0.1343579 0.3826643
vt 0.1202743 0.3660539
vt 0.1669275 0.5139606
vt 0.1596967 0.513961
vt 0.1633667 0.514006
vt 0.1669274 0.5211915
vt 0.1633667 0.521171
vt 0.1596967 0.5211912
vt 0.0635625 0.3672652
vt 0.05575462 0.39782
vt 0.05605413 0.3672892
vt 0.06417444 0.3977931
vt 0.06483755 0.4281534
vt 0.05550627 0.4281832
vt 0.05177552 0.4980395
vt 0.06959316 0.4979826
vt 0.04907079 0.5690039
vt 0.0728903 0.5689278
vt 0.04253447 0.5916814
vt 0.07950707 0.5915624
vt 0.05633278 0.6124015
vt 0.06566405 0.6123717
vt 0.05634023 0.636912
vt 0.0656715 0.6368822
vt 0.08984566 0.08712808
vt 0.09531671 0.085646
vt 0.1005853 0.08562209
vt 0.1039655 0.08710415
vt 0.07921782 0.3314922
vt 0.07924944 0.3559279
vt 0.09558146 0.3572844
vt 0.09556374 0.3225753
vt 0.06442097 0.3108353
vt 0.09556374 0.3225753
vt 0.09649672 0.3023323
vt 0.1021115 0.3225456
vt 0.1013257 0.3023103
vt 0.09556374 0.3225753
vt 0.1021292 0.3572546
vt 0.09558146 0.3572844
vt 0.1190519 0.3314625
vt 0.1339503 0.3107167
vt 0.1013257 0.3023103
vt 0.1021115 0.3225456
vt 0.1190836 0.3558981
vt 0.1021292 0.3572546
vt 0.1520914 0.2069785
vt 0.1293011 0.2237564
vt 0.1427602 0.2070083
vt 0.1655104 0.2236398
vt 0.135419 0.2556684
vt 0.1592385 0.2555923
vt 0.1380822 0.3410683
vt 0.1558999 0.3410114
vt 0.1421676 0.3991331
vt 0.1514989 0.3991032
vt 0.1429363 0.4313781
vt 0.1507578 0.4313531
vt 0.150096 0.4634354
vt 0.1437842 0.4634556
vt 0.08277705 0.4997346
vt 0.09630714 0.5575059
vt 0.09793699 0.4994265
vt 0.07776877 0.4145952
vt 0.09756497 0.4332286
vt 0.06626375 0.3827806
vt 0.09767473 0.384445
vt 0.1023939 0.4332066
vt 0.1025209 0.3844231
vt 0.1015492 0.4994101
vt 0.122563 0.4145193
vt 0.1343579 0.3826643
vt 0.1162843 0.4996777
vt 0.1080079 0.5575922
vt 0.102855 0.5574763
vt 0.09630714 0.5575059
vt 0.1023302 0.5897475
vt 0.09684193 0.5897725
vt 0.097435 0.6218719
vt 0.101864 0.6218518
vt 0.1015492 0.4994101
vt 0.102855 0.5574763
vt 0.1066144 0.5897437
vt 0.1023302 0.5897475
vt 0.101864 0.6218518
vt 0.10537 0.6217282
vt 0.10537 0.6217282
vt 0.101864 0.6218518
vt 0.097435 0.6218719
vt 0.09350026 0.6217483
vt 0.09684193 0.5897725
vt 0.09350026 0.6217483
vt 0.097435 0.6218719
vt 0.0919055 0.5897686
vt 0.09045993 0.557622
vt 0.09630714 0.5575059
vt 0.1669275 0.5139606
vt 0.1596965 0.5175773
vt 0.1596967 0.513961
vt 0.1669274 0.5175773
vt 0.1669274 0.5211915
vt 0.1596967 0.5211912
vt 0.1596967 0.513961
vt 0.1633667 0.5175897
vt 0.1633667 0.514006
vt 0.1596965 0.5175773
vt 0.1596967 0.5211912
vt 0.1633667 0.521171
vt 0.1633667 0.514006
vt 0.1669274 0.5175773
vt 0.1669275 0.5139606
vt 0.1633667 0.5175897
vt 0.1633667 0.521171
vt 0.1669274 0.5211915
vn -0.7698469 0.6382228 -0.002722132
vn -0.9864479 -0.02032369 -0.1628114
vn -0.992067 -0.09525187 -0.08203715
vn -0.8131431 0.5804963 -0.04269008
vn -0.9864479 -0.02032369 -0.1628114
vn -0.8637196 0.488683 -0.1231961
vn -0.9473693 -0.07521681 -0.3111811
vn -0.06445376 -0.9831523 -0.1710478
vn -0.992067 -0.09525187 -0.08203715
vn -0.1388624 -0.9862446 -0.0896595
vn -0.9334097 -0.1183679 -0.3387261
vn -0.8813815 0.4497859 -0.1444279
vn -0.9527065 -0.1518378 -0.2632409
vn -0.8998115 0.4102629 -0.1484036
vn -0.9620125 -0.1566805 -0.2235686
vn -0.9066282 0.3909219 -0.1587619
vn -0.2006018 -0.9528944 -0.2274887
vn -0.1940134 -0.9437197 -0.2678656
vn 0.3518881 -0.9214253 -0.1647732
vn 0.3714978 -0.9154003 -0.1550217
vn -0.1607202 -0.9249036 -0.3445614
vn 0.4109543 -0.8985599 -0.1539697
vn -0.118762 -0.9404478 -0.3185178
vn 0.4499059 -0.8828486 -0.1347696
vn 0.5443173 -0.8370864 -0.05481777
vn -0.1388624 -0.9862446 -0.0896595
vn -0.1388624 -0.9862446 -0.0896595
vn 0.6042058 -0.7966871 -0.01499764
vn -0.7931162 0.5832217 -0.1755541
vn -0.7894391 -0.2740384 -0.5492621
vn -0.9448839 -0.02885724 -0.3261312
vn -0.8512968 0.3513506 -0.389675
vn -0.7894391 -0.2740384 -0.5492621
vn -0.9448839 -0.02885724 -0.3261312
vn -0.3137067 -0.7728857 -0.5515758
vn -0.07073107 -0.9418272 -0.3285704
vn 0.314715 -0.8640704 -0.3928574
vn 0.549468 -0.8159572 -0.179718
vn -0.4971547 -0.4718869 -0.7281208
vn -0.4971547 -0.4718869 -0.7281208
vn -0.4971547 -0.4718869 -0.7281208
vn -0.236814 -0.2278006 0.9444713
vn -0.2368141 -0.2278006 0.9444713
vn -0.236814 -0.2278006 0.9444713
vn 0.7204747 0.6892655 0.07634966
vn 0.7099864 0.6782556 0.1894427
vn 0.7204748 0.6892654 0.07634966
vn 0.7099863 0.6782556 0.1894434
vn 0.6820331 0.6502466 0.3346795
vn 0.6820326 0.650246 0.3346813
vn 0.6882077 0.6563768 0.3090951
vn 0.6881906 0.6563597 0.3091694
vn 0.7122674 0.6806046 0.1716174
vn 0.712242 0.6805785 0.1718266
vn 0.720633 0.6906261 -0.06102208
vn 0.7206744 0.6906583 -0.06016278
vn 0.7151009 0.6859492 -0.1345526
vn 0.7150407 0.6858968 -0.1351386
vn 0.7220413 0.6911901 0.03020848
vn 0.7220404 0.6911887 0.03026343
vn 0.2340181 0.2321595 -0.9441068
vn 0.2340181 0.2321595 -0.9441068
vn 0.2340181 0.2321594 -0.9441067
vn 0.2340181 0.2321595 -0.9441068
vn -0.7855763 0.6001882 0.150479
vn -0.7931162 0.5832217 -0.1755541
vn -0.9448839 -0.02885724 -0.3261312
vn -0.9156666 -0.09952929 0.3894207
vn -0.8606737 0.2270422 0.455733
vn -0.9156666 -0.09952929 0.3894207
vn -0.725476 -0.3299274 0.6040137
vn -0.1350392 -0.9122103 0.3868291
vn -0.3540926 -0.7156851 0.6020077
vn -0.9156666 -0.09952929 0.3894207
vn -0.07073107 -0.9418272 -0.3285704
vn -0.9448839 -0.02885724 -0.3261312
vn 0.5679597 -0.8101408 0.1452364
vn 0.1940277 -0.8712498 0.4508626
vn -0.3540926 -0.7156851 0.6020077
vn -0.1350392 -0.9122103 0.3868291
vn 0.549468 -0.8159572 -0.179718
vn -0.07073107 -0.9418272 -0.3285704
vn 0.7220404 0.6911887 0.03026343
vn 0.7159551 0.6867142 -0.1258249
vn 0.7220413 0.6911901 0.03020848
vn 0.7160334 0.6867822 -0.1250055
vn 0.6823507 0.6561928 -0.3221934
vn 0.6824972 0.6563281 -0.3216069
vn 0.6353029 0.6123872 -0.4705019
vn 0.6353743 0.6124541 -0.4703185
vn 0.6336726 0.6108578 -0.47467
vn 0.6336409 0.6108282 -0.4747506
vn 0.6782871 0.6524084 -0.3380678
vn 0.6782747 0.6523969 -0.3381152
vn 0.7011537 0.6734184 -0.2342883
vn 0.7011537 0.6734185 -0.2342883
vn -0.861568 0.4643876 0.2050481
vn -0.9079504 0.009755512 0.4189641
vn -0.8811311 -0.08608878 0.4649695
vn -0.8967803 0.3974483 0.1944739
vn -0.9118683 -0.1343511 0.3878735
vn -0.9054409 0.3783529 0.1924206
vn -0.9211906 -0.1977406 0.3351217
vn -0.1690798 -0.9071418 0.3853644
vn -0.2305784 -0.9143408 0.3328881
vn -0.1193276 -0.878881 0.4618756
vn 0.3623604 -0.9122829 0.1908795
vn 0.3429584 -0.9201348 0.1890273
vn 0.4304578 -0.8803934 0.1990309
vn 0.6122718 -0.7862173 0.08358041
vn -0.02552248 -0.9101215 0.4135546
vn -0.9079504 0.009755512 0.4189641
vn 0.04707555 -0.967042 0.2502269
vn -0.9621053 0.08677038 0.2585038
vn -0.9792166 0.07148542 0.1898015
vn 0.03052485 -0.9830456 0.180803
vn -0.1193276 -0.878881 0.4618756
vn -0.02552248 -0.9101215 0.4135546
vn 0.6929641 -0.7208144 0.01507741
vn 0.04707555 -0.967042 0.2502269
vn 0.03052485 -0.9830456 0.180803
vn 0.6930312 -0.7207569 0.01474585
vn 0.08825134 0.07599863 0.9931948
vn 0.08825134 0.07599863 0.9931948
vn 0.08825134 0.07599863 0.9931948
vn 0.08825134 0.07599861 0.9931948
vn -0.9621053 0.08677038 0.2585038
vn -0.6898006 0.7234936 0.02705391
vn -0.9792166 0.07148542 0.1898015
vn -0.6900661 0.7232503 0.02678923
vn -0.7592472 0.6440839 0.0932712
vn -0.9079504 0.009755512 0.4189641
vn 0.7149139 0.6939647 -0.08550529
vn 0.7153799 0.6934841 -0.08550718
vn 0.7149138 0.6939648 -0.08550528
vn 0.7153802 0.6934838 -0.08550718
vn 0.7158459 0.6930027 -0.08550905
vn 0.7158459 0.6930028 -0.08550905
vn -0.9109636 0.4110168 0.03479409
vn -0.9204 0.3892551 0.03666518
vn -0.9109636 0.4110167 0.03479409
vn -0.9181353 0.3946094 0.03620847
vn -0.9271861 0.372662 0.03806553
vn -0.9271861 0.372662 0.03806554
vn 0.3732524 -0.9272512 0.02979594
vn 0.3570145 -0.9335774 0.03120867
vn 0.3732525 -0.9272512 0.02979594
vn 0.3517512 -0.9355579 0.0316625
vn 0.3353517 -0.9415126 0.03306406
vn 0.3353516 -0.9415126 0.03306406
g Bow_0
f 3/3/3 2/2/2 1/1/1
f 5/5/5 4/4/4 1/1/1
f 6/6/6 4/4/4 5/5/5
f 7/7/7 6/6/6 5/5/5
f 7/7/7 5/5/5 8/8/8
f 8/8/8 5/5/5 9/9/9
f 10/10/10 8/8/8 9/9/9
f 7/7/7 11/11/11 6/6/6
f 11/11/11 12/12/12 6/6/6
f 11/11/11 13/13/13 12/12/12
f 13/13/13 14/14/14 12/12/12
f 13/13/13 15/15/15 14/14/14
f 15/15/15 16/16/16 14/14/14
f 17/17/17 15/15/15 13/13/13
f 18/18/18 17/17/17 13/13/13
f 18/18/18 13/13/13 11/11/11
f 19/19/19 17/17/17 18/18/18
f 20/20/20 19/19/19 18/18/18
f 21/21/21 18/18/18 11/11/11
f 20/20/20 18/18/18 21/21/21
f 21/21/21 11/11/11 7/7/7
f 22/22/22 20/20/20 21/21/21
f 23/23/23 21/21/21 7/7/7
f 22/22/22 21/21/21 23/23/23
f 24/24/24 22/22/22 23/23/23
f 23/23/23 7/7/7 8/8/8
f 24/24/24 23/23/23 25/25/25
f 23/23/23 8/8/8 25/25/25
f 25/25/25 8/8/8 26/26/26
f 28/28/28 25/25/25 27/27/27
f 31/31/31 30/30/30 29/29/29
f 33/33/33 32/32/32 29/29/29
f 35/35/35 33/33/33 34/34/34
f 36/36/36 35/35/35 34/34/34
f 37/37/37 35/35/35 36/36/36
f 38/38/38 37/37/37 36/36/36
f 41/41/41 40/40/40 39/39/39
f 44/44/44 43/43/43 42/42/42
f 47/47/47 46/46/46 45/45/45
f 46/46/46 48/48/48 45/45/45
f 49/49/49 48/48/48 46/46/46
f 50/50/50 49/49/49 46/46/46
f 50/50/50 51/51/51 49/49/49
f 51/51/51 52/52/52 49/49/49
f 51/51/51 53/53/53 52/52/52
f 53/53/53 54/54/54 52/52/52
f 53/53/53 55/55/55 54/54/54
f 55/55/55 56/56/56 54/54/54
f 55/55/55 57/57/57 56/56/56
f 57/57/57 58/58/58 56/56/56
f 57/57/57 59/59/59 58/58/58
f 59/59/59 60/60/60 58/58/58
f 63/63/63 62/62/62 61/61/61
f 64/64/64 63/63/63 61/61/61
f 67/67/67 66/66/66 65/65/65
f 68/68/68 67/67/67 65/65/65
f 70/70/70 65/65/65 69/69/69
f 71/71/71 70/70/70 69/69/69
f 73/73/73 72/72/72 71/71/71
f 72/72/72 74/74/74 71/71/71
f 72/72/72 75/75/75 74/74/74
f 75/75/75 76/76/76 74/74/74
f 78/78/78 77/77/77 73/73/73
f 77/77/77 80/80/80 79/79/79
f 77/77/77 81/81/81 80/80/80
f 81/81/81 82/82/82 80/80/80
f 85/85/85 84/84/84 83/83/83
f 84/84/84 86/86/86 83/83/83
f 84/84/84 87/87/87 86/86/86
f 87/87/87 88/88/88 86/86/86
f 87/87/87 89/89/89 88/88/88
f 89/89/89 90/90/90 88/88/88
f 89/89/89 91/91/91 90/90/90
f 91/91/91 92/92/92 90/90/90
f 91/91/91 93/93/93 92/92/92
f 93/93/93 94/94/94 92/92/92
f 95/95/95 94/94/94 93/93/93
f 96/96/96 95/95/95 93/93/93
f 99/99/99 98/98/98 97/97/97
f 99/99/99 97/97/97 100/100/100
f 101/101/101 99/99/99 100/100/100
f 101/101/101 100/100/100 102/102/102
f 103/103/103 101/101/101 102/102/102
f 104/104/104 101/101/101 103/103/103
f 105/105/105 104/104/104 103/103/103
f 106/106/106 99/99/99 101/101/101
f 104/104/104 106/106/106 101/101/101
f 107/107/107 104/104/104 105/105/105
f 108/108/108 107/107/107 105/105/105
f 107/107/107 109/109/109 104/104/104
f 109/109/109 106/106/106 104/104/104
f 109/109/109 110/110/110 106/106/106
f 106/106/106 111/111/111 99/99/99
f 111/111/111 112/112/112 99/99/99
f 111/111/111 113/113/113 112/112/112
f 113/113/113 114/114/114 112/112/112
f 115/115/115 114/114/114 113/113/113
f 116/116/116 115/115/115 113/113/113
f 110/110/110 118/118/118 117/117/117
f 110/110/110 119/119/119 118/118/118
f 119/119/119 120/120/120 118/118/118
f 121/121/121 120/120/120 119/119/119
f 122/122/122 121/121/121 119/119/119
f 125/125/125 124/124/124 123/123/123
f 126/126/126 125/125/125 123/123/123
f 129/129/129 128/128/128 127/127/127
f 128/128/128 130/130/130 127/127/127
f 127/127/127 130/130/130 131/131/131
f 132/132/132 127/127/127 131/131/131
f 132/132/132 131/131/131 97/97/97
f 135/135/135 134/134/134 133/133/133
f 134/134/134 136/136/136 133/133/133
f 137/137/137 136/136/136 134/134/134
f 138/138/138 137/137/137 134/134/134
f 141/141/141 140/140/140 139/139/139
f 140/140/140 142/142/142 139/139/139
f 143/143/143 142/142/142 140/140/140
f 144/144/144 143/143/143 140/140/140
f 147/147/147 146/146/146 145/145/145
f 146/146/146 148/148/148 145/145/145
f 149/149/149 148/148/148 146/146/146
f 150/150/150 149/149/149 146/146/146
