g Gladius02
v 0.02850213 0.004510205 0.04901456
v 0.02822724 -0.005988697 0.04901462
v 0.02234954 -0.0005816483 0.1841006
v -0.0230031 0.0006059473 0.1841006
v -0.02826574 -0.004234518 0.05011487
v -0.02800514 0.005715037 0.05011486
v -0.01799372 0.009523013 -0.1205042
v -0.01846735 -0.008561223 -0.120504
v -0.0004791738 -0.0127421 -0.1203628
v 0.0001885363 0.01275667 -0.120363
v 0.01770308 -0.009508479 -0.1202215
v 0.0181767 0.008575735 -0.1202215
v 0.0181767 0.008575735 -0.1202215
v 0.01770308 -0.009508479 -0.1202215
v 0.02910444 -0.004947614 -0.09925441
v 0.0293237 0.003424659 -0.09925457
v 0.0293237 0.003424659 -0.09925457
v 0.02910444 -0.004947614 -0.09925441
v 0.01627114 -0.009470931 -0.07261062
v 0.01674463 0.008613379 -0.07261073
v 0.01530932 0.004127247 -0.07261074
v 0.01507262 -0.004915805 -0.07261055
v 0.01717318 -0.004970846 0.01267654
v 0.01740995 0.00407229 0.01267653
v 0.01913132 0.01226063 0.01267646
v 0.01846361 -0.01323812 0.01267655
v 0.03497158 -0.008551827 0.02657657
v 0.03537131 0.006716838 0.02657655
v 0.03537131 0.006716838 0.02657655
v 0.03497158 -0.008551827 0.02657657
v 0.04272764 -0.008754906 0.04768987
v 0.04312759 0.00651379 0.04768995
v 0.04312759 0.00651379 0.04768995
v 0.04272764 -0.008754906 0.04768987
v 0.0280308 -0.01348853 0.0490147
v 0.02869844 0.01201009 0.04901457
v -0.02780162 0.01348964 0.05011486
v -0.02846933 -0.01200911 0.05011496
v -0.043125 -0.006506715 0.04901006
v -0.04272513 0.008761876 0.04901003
v -0.04272513 0.008761876 0.04901003
v -0.043125 -0.006506715 0.04901006
v -0.03472765 -0.006726606 0.02699973
v -0.03432785 0.008542022 0.0269997
v -0.03432785 0.008542022 0.0269997
v -0.03472765 -0.006726606 0.02699973
v -0.01832025 -0.01227482 0.01304009
v -0.01765255 0.01322388 0.01304014
v -0.01633678 0.00495601 0.01304011
v -0.01657362 -0.004087089 0.01304013
v -0.01438884 -0.004144332 -0.07253027
v -0.014152 0.004898767 -0.07253029
v -0.01536828 0.009454202 -0.07253039
v -0.01584191 -0.008630035 -0.07253026
v -0.02941713 -0.003415246 -0.09857593
v -0.0291978 0.004957133 -0.098576
v -0.0291978 0.004957133 -0.098576
v -0.02941713 -0.003415246 -0.09857593
v -0.01846735 -0.008561223 -0.120504
v -0.01799372 0.009523013 -0.1205042
v -0.02780162 0.01348964 0.05011486
v -0.04272513 0.008761876 0.04901003
v -0.03432785 0.008542022 0.0269997
v -0.01765255 0.01322388 0.01304014
v 0.02869844 0.01201009 0.04901457
v 0.01913132 0.01226063 0.01267646
v 0.03537131 0.006716838 0.02657655
v 0.04312759 0.00651379 0.04768995
v 0.02234954 -0.0005816483 0.1841006
v 0.0008061407 0.008544939 0.04955559
v 0.02850213 0.004510205 0.04901456
v 0.0002539521 0.008645079 0.212722
v 0.02243165 -0.0005837677 0.2896643
v 0.0266432 -0.0006940081 0.3903833
v -0.0005767531 0.0077116 0.3904798
v -0.0007480101 2.327055E-05 0.5362248
v 0.0002539521 0.008645079 0.212722
v -0.0283469 0.0007459521 0.3905769
v -0.02300714 0.0006060846 0.2896644
v 0.0002539521 0.008645079 0.212722
v -0.0230031 0.0006059473 0.1841006
v 0.0008061407 0.008544939 0.04955559
v -0.02800514 0.005715037 0.05011486
v 0.0007034672 0.01088946 0.0128583
v -0.01633678 0.00495601 0.01304011
v -0.014152 0.004898767 -0.07253029
v 0.0007456419 0.01088831 -0.07257042
v 0.01530932 0.004127247 -0.07261074
v 0.01740995 0.00407229 0.01267653
v -0.01536828 0.009454202 -0.07253039
v -0.0291978 0.004957133 -0.098576
v -0.01799372 0.009523013 -0.1205042
v 0.0001885363 0.01275667 -0.120363
v 0.0007852165 0.01274104 -0.07257051
v 0.0181767 0.008575735 -0.1202215
v 0.01674463 0.008613379 -0.07261073
v 0.0293237 0.003424659 -0.09925457
v -0.02846933 -0.01200911 0.05011496
v -0.03472765 -0.006726606 0.02699973
v -0.043125 -0.006506715 0.04901006
v -0.01832025 -0.01227482 0.01304009
v 0.0280308 -0.01348853 0.0490147
v 0.01846361 -0.01323812 0.01267655
v 0.03497158 -0.008551827 0.02657657
v 0.04272764 -0.008754906 0.04768987
v 0.0001748979 -0.01090548 -0.07257046
v -0.01438884 -0.004144332 -0.07253027
v -0.01657362 -0.004087089 0.01304013
v 0.0001327882 -0.01090439 0.01285832
v 0.01717318 -0.004970846 0.01267654
v 0.01507262 -0.004915805 -0.07261055
v -0.01584191 -0.008630035 -0.07253026
v -0.01846735 -0.008561223 -0.120504
v -0.02941713 -0.003415246 -0.09857593
v -0.0004791738 -0.0127421 -0.1203628
v 0.0001175085 -0.01275769 -0.07257049
v 0.01627114 -0.009470931 -0.07261062
v 0.01770308 -0.009508479 -0.1202215
v 0.02910444 -0.004947614 -0.09925441
v -0.02846933 -0.01200911 0.05011496
v -0.02780162 0.01348964 0.05011486
v 0.02869844 0.01201009 0.04901457
v 0.0280308 -0.01348853 0.0490147
v 0.0007852165 0.01274104 -0.07257051
v 0.01674463 0.008613379 -0.07261073
v 0.01627114 -0.009470931 -0.07261062
v 0.0001748979 -0.01090548 -0.07257046
v -0.01536828 0.009454202 -0.07253039
v -0.01584191 -0.008630035 -0.07253026
v -0.01832025 -0.01227482 0.01304009
v 0.01846361 -0.01323812 0.01267655
v 0.01913132 0.01226063 0.01267646
v -0.01765255 0.01322388 0.01304014
v 0.02243165 -0.0005837677 0.2896643
v -0.001770222 -0.007642773 0.3904825
v 0.0266432 -0.0006940081 0.3903833
v -0.000252867 -0.008637901 0.1841006
v -0.0007480101 2.327055E-05 0.5362248
v -0.0283469 0.0007459521 0.3905769
v -0.02300714 0.0006060846 0.2896644
v 0.02234954 -0.0005816483 0.1841006
v -0.0230031 0.0006059473 0.1841006
v 0.02822724 -0.005988697 0.04901462
v -0.02826574 -0.004234518 0.05011487
v 0.0007895785 -0.008579705 0.0495473
vt 0.382494 0.1639615
vt 0.3679382 0.1611091
vt 0.3623473 0.2885785
vt 0.318583 0.2885258
vt 0.3136367 0.1620594
vt 0.3009353 0.1660488
vt 0.5180027 0.3404745
vt 0.5437765 0.3404749
vt 0.5490606 0.3662356
vt 0.5127195 0.366235
vt 0.5437773 0.391996
vt 0.5180036 0.3919956
vt 0.6094579 0.6218659
vt 0.6392871 0.6218587
vt 0.6312793 0.6564113
vt 0.6174852 0.6563993
vt 0.6174852 0.6563993
vt 0.6312793 0.6564113
vt 0.6393175 0.6988578
vt 0.6094751 0.6988566
vt 0.2317786 0.5443719
vt 0.246685 0.5443744
vt 0.2466795 0.6820076
vt 0.2318184 0.6819803
vt 0.008183837 0.6753525
vt 0.05029845 0.6753451
vt 0.04183519 0.6977948
vt 0.01662314 0.697796
vt 0.01662314 0.697796
vt 0.04183519 0.6977948
vt 0.04183292 0.7325243
vt 0.01662123 0.7325274
vt 0.014212 0.4615055
vt 0.03596984 0.4618855
vt 0.04362045 0.4412726
vt 0.007284984 0.4406378
vt 0.008688316 0.3601711
vt 0.04502378 0.3608059
vt 0.03810225 0.3396154
vt 0.01634441 0.3392354
vt 0.01659155 0.7325443
vt 0.04179263 0.7325474
vt 0.04181802 0.6977986
vt 0.01661742 0.6977974
vt 0.01661742 0.6977974
vt 0.04181802 0.6977986
vt 0.05025005 0.6753629
vt 0.008175969 0.6753553
vt 0.2316541 0.6820463
vt 0.2466504 0.6820191
vt 0.2466485 0.544378
vt 0.2316975 0.5443801
vt 0.6094411 0.6988597
vt 0.6393071 0.6988587
vt 0.6312695 0.6564155
vt 0.6174207 0.6564271
vt 0.6174207 0.6564271
vt 0.6312695 0.6564155
vt 0.6392859 0.6218583
vt 0.6094065 0.6218508
vt 0.8859559 0.7073563
vt 0.9157902 0.7090228
vt 0.8996507 0.7528808
vt 0.8667526 0.7810923
vt 0.7720202 0.7115232
vt 0.7925862 0.7831067
vt 0.759062 0.7561724
vt 0.7426375 0.7146587
vt 0.3623473 0.2885785
vt 0.3414984 0.1615399
vt 0.3679469 0.1611007
vt 0.3400224 0.2883468
vt 0.3623086 0.3882346
vt 0.3663613 0.4833268
vt 0.3395939 0.4834191
vt 0.3400032 0.6210204
vt 0.3400224 0.2883468
vt 0.313445 0.4835094
vt 0.3185833 0.3882346
vt 0.3400224 0.2883468
vt 0.318583 0.2885258
vt 0.3414984 0.1615399
vt 0.3136367 0.1620594
vt 0.9607127 0.1543348
vt 0.980698 0.1546468
vt 0.9755079 0.2540091
vt 0.9580774 0.2535993
vt 0.9405952 0.2531883
vt 0.9407216 0.1540227
vt 0.8614315 0.8835075
vt 0.8816614 0.9237106
vt 0.8635966 0.9566388
vt 0.8354714 0.9556873
vt 0.8365264 0.8829165
vt 0.8074865 0.9547391
vt 0.8116086 0.8823253
vt 0.7908094 0.922365
vt 0.8859865 0.7073555
vt 0.8996786 0.7528804
vt 0.9158975 0.7090209
vt 0.8668047 0.7810913
vt 0.772046 0.7115228
vt 0.7925893 0.7831066
vt 0.7590919 0.7561717
vt 0.7427648 0.7146564
vt 0.958175 0.2536019
vt 0.9755157 0.2540093
vt 0.9807077 0.1546471
vt 0.9607154 0.154335
vt 0.9407286 0.1540229
vt 0.9406405 0.2531895
vt 0.8614583 0.8835082
vt 0.8636155 0.9566393
vt 0.8816695 0.9237108
vt 0.8356352 0.9556915
vt 0.836676 0.8829205
vt 0.8116314 0.8823259
vt 0.807515 0.9547398
vt 0.7908807 0.9223669
vt 0.04502378 0.3608059
vt 0.008688316 0.3601711
vt 0.007284984 0.4406378
vt 0.04362045 0.4412726
vt 0.4655536 0.3500019
vt 0.4708375 0.3728728
vt 0.4966113 0.3728732
vt 0.4992544 0.3500149
vt 0.4708369 0.327131
vt 0.4966107 0.3271314
vt 0.6401264 0.5532882
vt 0.6401274 0.6056835
vt 0.6037863 0.6056828
vt 0.6037855 0.5532877
vt 0.3623086 0.3882346
vt 0.3395932 0.4834191
vt 0.3663613 0.4833268
vt 0.3400515 0.2883609
vt 0.3400032 0.6210204
vt 0.313445 0.4835094
vt 0.3185833 0.3882346
vt 0.3623473 0.2885785
vt 0.318583 0.2885258
vt 0.3679382 0.1611091
vt 0.3136367 0.1620594
vt 0.3414824 0.161532
vn 0.9986671 -0.02614758 0.04449944
vn 0.9986671 -0.02614756 0.04449945
vn 0.9986671 -0.02614761 0.04449943
vn -0.9989241 0.02616307 0.03829014
vn -0.9989241 0.02616307 0.03829014
vn -0.9989241 0.02616307 0.03829014
vn 0.007801517 -0.000211153 -0.9999696
vn 0.007801525 -0.0002111407 -0.9999696
vn 0.007806611 -0.0002104191 -0.9999695
vn 0.007806596 -0.0002104439 -0.9999695
vn 0.007811683 -0.0002097223 -0.9999695
vn 0.007811695 -0.0002097296 -0.9999695
vn 0.8803778 -0.02306054 -0.4737122
vn 0.8803778 -0.02306058 -0.4737122
vn 0.8803778 -0.02306056 -0.4737122
vn 0.8803778 -0.02306058 -0.4737122
vn 0.9022486 -0.02362013 0.4305688
vn 0.9022486 -0.02362013 0.4305688
vn 0.9022486 -0.02362013 0.4305688
vn 0.9022486 -0.02362009 0.4305689
vn 0.8407504 0.54114 -0.01750257
vn 0.8112854 -0.5843883 -0.01750259
vn 0.8154035 -0.5786245 -0.01763009
vn 0.844565 0.5351627 -0.01763018
vn 0.6468159 -0.01693813 -0.7624581
vn 0.6468159 -0.01693814 -0.7624581
vn 0.6468158 -0.01693811 -0.7624581
vn 0.6468159 -0.01693814 -0.7624581
vn 0.9383065 -0.02457047 -0.3449309
vn 0.9383063 -0.02457049 -0.344931
vn 0.9383065 -0.02457047 -0.3449309
vn 0.9383065 -0.02457047 -0.3449309
vn 0.09052912 -0.002369316 0.995891
vn 0.09052912 -0.002369325 0.995891
vn 0.09052913 -0.0023693 0.995891
vn 0.09052913 -0.0023693 0.995891
vn -0.07444715 0.001952703 0.9972231
vn -0.07444714 0.001952732 0.9972231
vn -0.07444714 0.0019527 0.9972231
vn -0.07444715 0.001952703 0.9972231
vn -0.9339513 0.02445623 -0.3565624
vn -0.9339513 0.02445627 -0.3565625
vn -0.9339513 0.02445627 -0.3565624
vn -0.9339513 0.02445627 -0.3565624
vn -0.6445974 0.01687948 -0.7643359
vn -0.6445973 0.01687951 -0.764336
vn -0.6445974 0.01687948 -0.7643359
vn -0.6445974 0.01687949 -0.7643359
vn -0.8180407 0.5748634 -0.01847751
vn -0.8470094 -0.5312567 -0.01847714
vn -0.8400895 -0.542141 -0.01823918
vn -0.8105602 0.5853711 -0.01823953
vn -0.8846311 0.02317364 0.4657154
vn -0.8846311 0.02317368 0.4657153
vn -0.8846311 0.02317368 0.4657153
vn -0.8846311 0.02317364 0.4657154
vn -0.8922138 0.02336574 -0.4510083
vn -0.8922139 0.02336571 -0.4510083
vn -0.8922139 0.02336573 -0.4510083
vn -0.8922139 0.02336573 -0.4510083
vn -0.1791973 0.9817085 -0.06431758
vn -0.3243496 0.9395744 -0.1095332
vn -0.3243496 0.9395744 -0.1095332
vn -0.06492461 0.9974809 -0.0285781
vn 0.2269831 0.972001 -0.06076773
vn 0.1193673 0.9924508 -0.02815646
vn 0.3749103 0.921007 -0.1057754
vn 0.3749103 0.921007 -0.1057754
vn 0.2952513 0.9552639 0.01725064
vn 0.03192339 0.9992573 0.02158064
vn 0.2694085 0.9627709 0.02216979
vn 0.03052344 0.9995196 0.005377715
vn 0.3605526 0.9327285 0.004379574
vn 0.2950654 0.9553044 0.01816505
vn 0.02643809 0.99943 0.02098828
vn 0.02617304 0.9982678 0.05269127
vn 0.03052344 0.9995196 0.005377715
vn -0.2432047 0.9698271 0.01693761
vn -0.3109624 0.9504209 0.00160972
vn 0.03052344 0.9995196 0.005377715
vn -0.2399403 0.9706675 0.01527108
vn 0.03192339 0.9992573 0.02158064
vn -0.2144501 0.9765368 0.01967241
vn 0.02344184 0.9997123 -0.005062937
vn -0.8180407 0.5748634 -0.01847751
vn -0.8105602 0.5853711 -0.01823953
vn 0.02690677 0.9996251 -0.005061276
vn 0.8407504 0.54114 -0.01750257
vn 0.844565 0.5351627 -0.01763018
vn -0.2215982 0.9750865 0.01002754
vn -0.343267 0.9390221 0.02013269
vn -0.2292858 0.9733008 0.01066209
vn 0.02341791 0.9997149 0.004640006
vn 0.02751136 0.999611 0.004588996
vn 0.2819707 0.9594129 0.004385683
vn 0.2740285 0.9617136 0.003930067
vn 0.401767 0.9156715 0.01136068
vn -0.2303328 -0.970984 -0.06431875
vn -0.3730825 -0.9213095 -0.1095359
vn -0.3730825 -0.9213095 -0.1095359
vn -0.1170415 -0.9927158 -0.02857825
vn 0.1758009 -0.9825485 -0.06076526
vn 0.06726245 -0.997338 -0.028155
vn 0.3261951 -0.9393663 -0.1057719
vn 0.3261951 -0.9393663 -0.1057719
vn -0.02545063 -0.9996632 -0.005060845
vn -0.8400895 -0.542141 -0.01823918
vn -0.8470094 -0.5312567 -0.01847714
vn -0.0289137 -0.9995691 -0.00506251
vn 0.8154035 -0.5786245 -0.01763009
vn 0.8112854 -0.5843883 -0.01750259
vn -0.2723259 -0.9621528 0.01002616
vn -0.2799098 -0.9599671 0.01066062
vn -0.3919429 -0.9197693 0.02013042
vn -0.02893629 -0.9995704 0.004640361
vn -0.0248434 -0.9996808 0.004589433
vn 0.2233202 -0.9747372 0.003932245
vn 0.2313723 -0.9728554 0.004387883
vn 0.3533044 -0.9354394 0.01136372
vn 0.0194569 -0.0005050151 0.9998106
vn 0.0194569 -0.0005050163 0.9998106
vn 0.0194569 -0.0005050151 0.9998106
vn 0.01945691 -0.0005050033 0.9998106
vn 0.002500513 -6.093013E-05 0.9999969
vn 0.002500512 -6.094548E-05 0.9999969
vn 0.002500512 -6.094548E-05 0.9999969
vn 0.002500511 -6.096206E-05 0.9999969
vn 0.002500526 -6.093736E-05 0.9999969
vn 0.002500512 -6.094548E-05 0.9999969
vn -0.009877948 0.0002577845 -0.9999512
vn -0.009877942 0.0002577809 -0.9999512
vn -0.009877942 0.0002577963 -0.9999512
vn -0.009877934 0.000257808 -0.9999512
vn 0.3021631 -0.9532445 0.004743477
vn -0.0339039 -0.999206 0.02092653
vn 0.2375794 -0.971207 0.01768979
vn -0.02308707 -0.9996578 0.01230139
vn -0.02601358 -0.9982719 0.05269154
vn -0.300902 -0.9534962 0.01740289
vn -0.3640915 -0.9313631 0.0002398622
vn 0.2721036 -0.9621885 0.01236461
vn -0.315179 -0.9489719 0.01069556
vn 0.2083041 -0.9777511 0.02474172
vn -0.2534503 -0.9671159 0.02120588
vn -0.01912202 -0.9995376 0.02364313
g Gladius02_0
f 3/3/3 2/2/2 1/1/1
f 6/6/6 5/5/5 4/4/4
f 9/9/9 8/8/8 7/7/7
f 10/10/10 9/9/9 7/7/7
f 11/11/11 9/9/9 10/10/10
f 12/12/12 11/11/11 10/10/10
f 15/15/15 14/14/14 13/13/13
f 16/16/16 15/15/15 13/13/13
f 19/19/19 18/18/18 17/17/17
f 20/20/20 19/19/19 17/17/17
f 23/23/23 22/22/22 21/21/21
f 24/24/24 23/23/23 21/21/21
f 27/27/27 26/26/26 25/25/25
f 28/28/28 27/27/27 25/25/25
f 31/31/31 30/30/30 29/29/29
f 32/32/32 31/31/31 29/29/29
f 35/35/35 34/34/34 33/33/33
f 36/36/36 35/35/35 33/33/33
f 39/39/39 38/38/38 37/37/37
f 40/40/40 39/39/39 37/37/37
f 43/43/43 42/42/42 41/41/41
f 44/44/44 43/43/43 41/41/41
f 47/47/47 46/46/46 45/45/45
f 48/48/48 47/47/47 45/45/45
f 51/51/51 50/50/50 49/49/49
f 52/52/52 51/51/51 49/49/49
f 55/55/55 54/54/54 53/53/53
f 56/56/56 55/55/55 53/53/53
f 59/59/59 58/58/58 57/57/57
f 60/60/60 59/59/59 57/57/57
f 63/63/63 62/62/62 61/61/61
f 64/64/64 63/63/63 61/61/61
f 64/64/64 61/61/61 65/65/65
f 66/66/66 64/64/64 65/65/65
f 66/66/66 65/65/65 67/67/67
f 65/65/65 68/68/68 67/67/67
f 71/71/71 70/70/70 69/69/69
f 70/70/70 72/72/72 69/69/69
f 72/72/72 73/73/73 69/69/69
f 73/73/73 75/75/75 74/74/74
f 75/75/75 76/76/76 74/74/74
f 77/77/77 75/75/75 73/73/73
f 78/78/78 76/76/76 75/75/75
f 77/77/77 79/79/79 75/75/75
f 79/79/79 78/78/78 75/75/75
f 81/81/81 79/79/79 80/80/80
f 81/81/81 80/80/80 82/82/82
f 83/83/83 81/81/81 82/82/82
f 86/86/86 85/85/85 84/84/84
f 87/87/87 86/86/86 84/84/84
f 87/87/87 84/84/84 88/88/88
f 84/84/84 89/89/89 88/88/88
f 92/92/92 91/91/91 90/90/90
f 93/93/93 92/92/92 90/90/90
f 94/94/94 93/93/93 90/90/90
f 95/95/95 93/93/93 94/94/94
f 96/96/96 95/95/95 94/94/94
f 95/95/95 96/96/96 97/97/97
f 100/100/100 99/99/99 98/98/98
f 99/99/99 101/101/101 98/98/98
f 98/98/98 101/101/101 102/102/102
f 101/101/101 103/103/103 102/102/102
f 102/102/102 103/103/103 104/104/104
f 105/105/105 102/102/102 104/104/104
f 108/108/108 107/107/107 106/106/106
f 109/109/109 108/108/108 106/106/106
f 110/110/110 109/109/109 106/106/106
f 111/111/111 110/110/110 106/106/106
f 114/114/114 113/113/113 112/112/112
f 113/113/113 115/115/115 112/112/112
f 115/115/115 116/116/116 112/112/112
f 116/116/116 115/115/115 117/117/117
f 115/115/115 118/118/118 117/117/117
f 117/117/117 118/118/118 119/119/119
f 122/122/122 121/121/121 120/120/120
f 123/123/123 122/122/122 120/120/120
f 126/126/126 125/125/125 124/124/124
f 124/124/124 127/127/127 126/126/126
f 124/124/124 128/128/128 127/127/127
f 128/128/128 129/129/129 127/127/127
f 132/132/132 131/131/131 130/130/130
f 133/133/133 132/132/132 130/130/130
f 136/136/136 135/135/135 134/134/134
f 134/134/134 135/135/135 137/137/137
f 138/138/138 135/135/135 136/136/136
f 138/138/138 139/139/139 135/135/135
f 135/135/135 139/139/139 140/140/140
f 135/135/135 140/140/140 137/137/137
f 134/134/134 137/137/137 141/141/141
f 140/140/140 142/142/142 137/137/137
f 141/141/141 137/137/137 143/143/143
f 142/142/142 144/144/144 137/137/137
f 137/137/137 145/145/145 143/143/143
f 144/144/144 145/145/145 137/137/137
