g Longsword
v 0.1140393 0.007530402 0.03731825
v 0.1140394 0.007530405 0.02524433
v 0.1166823 -0.0109707 0.02524439
v 0.1166822 -0.01097071 0.03731832
v 0.0513525 0.02643121 0.02665688
v 0.05135247 0.02643129 0.01458298
v 0.1140394 0.007530405 0.02524433
v 0.1140393 0.007530402 0.03731825
v -0.05436813 0.02643121 0.02665684
v -0.0543681 0.02643125 0.01458293
v 0.05135247 0.02643129 0.01458298
v 0.0513525 0.02643121 0.02665688
v -0.1178182 0.01246606 0.03347541
v -0.1178182 0.0124661 0.0214015
v -0.0543681 0.02643125 0.01458293
v -0.05436813 0.02643121 0.02665684
v -0.1178004 -0.01086741 0.03347547
v -0.1178004 -0.01086737 0.02140157
v -0.1178182 0.0124661 0.0214015
v -0.1178182 0.01246606 0.03347541
v -0.05436806 -0.02378604 0.02665687
v -0.05436811 -0.02378613 0.01458292
v -0.1178004 -0.01086737 0.02140157
v -0.1178004 -0.01086741 0.03347547
v 0.0510274 -0.02643047 0.02665686
v 0.05102742 -0.0264306 0.0145829
v -0.05436811 -0.02378613 0.01458292
v -0.05436806 -0.02378604 0.02665687
v 0.1166822 -0.01097071 0.03731832
v 0.1166823 -0.0109707 0.02524439
v 0.05102742 -0.0264306 0.0145829
v 0.0510274 -0.02643047 0.02665686
v -0.1178182 0.0124661 0.0214015
v -0.1178004 -0.01086737 0.02140157
v -0.05436811 -0.02378613 0.01458292
v -0.0543681 0.02643125 0.01458293
v 0.05102742 -0.0264306 0.0145829
v 0.05135247 0.02643129 0.01458298
v 0.1166823 -0.0109707 0.02524439
v 0.1140394 0.007530405 0.02524433
v -0.1178182 0.01246606 0.03347541
v -0.05436806 -0.02378604 0.02665687
v -0.1178004 -0.01086741 0.03347547
v -0.05436813 0.02643121 0.02665684
v 0.0510274 -0.02643047 0.02665686
v 0.0513525 0.02643121 0.02665688
v 0.1166822 -0.01097071 0.03731832
v 0.1140393 0.007530402 0.03731825
v -0.0005426819 0.009987399 0.07366318
v -0.0006410675 0.00989699 0.02690732
v 0.02872177 -0.000281116 0.02690736
v 0.02903861 -0.0002779909 0.07366304
v 6.826926E-05 0.006142786 0.8558783
v 0.01865043 -0.0004102419 0.8558783
v 0.0002634363 -0.0005954083 0.9249998
v -0.03133896 -0.0002779361 0.07366312
v -0.03117524 -0.0002811055 0.02690734
v -0.0006410675 0.00989699 0.02690732
v -0.0005426819 0.009987399 0.07366318
v -0.01739102 -0.000410252 0.8558783
v 6.826926E-05 0.006142786 0.8558783
v 0.0002634363 -0.0005954083 0.9249998
v -0.0003998002 -0.007431328 0.8558783
v 0.01865043 -0.0004102419 0.8558783
v -0.001275904 -0.0112767 0.07366317
v 0.02903861 -0.0002779909 0.07366304
v -0.001368113 -0.0111862 0.02690729
v 0.02872177 -0.000281116 0.02690736
v -0.001275904 -0.0112767 0.07366317
v -0.001368113 -0.0111862 0.02690729
v -0.03117524 -0.0002811055 0.02690734
v -0.03133896 -0.0002779361 0.07366312
v -0.0003998002 -0.007431328 0.8558783
v -0.01739102 -0.000410252 0.8558783
v 0.0002634363 -0.0005954083 0.9249998
v -0.0006410675 0.00989699 0.02690732
v -0.03117524 -0.0002811055 0.02690734
v -0.001368113 -0.0111862 0.02690729
v 0.02872177 -0.000281116 0.02690736
v 0.01475211 -0.01635667 -0.2726083
v 0.0115314 -0.01292376 -0.2974113
v -0.001888909 -0.01848263 -0.2974112
v -0.001888825 -0.02324972 -0.2726083
v 0.009294537 -0.01126698 -0.2337726
v -0.001888876 -0.01589955 -0.2337726
v 0.01153128 -0.01292371 0.0145319
v -0.00188897 -0.01848261 0.01453193
v 0.02164512 0.0002843368 -0.2726083
v 0.01709026 0.0004964389 -0.2974112
v 0.0115314 -0.01292376 -0.2974113
v 0.01475211 -0.01635667 -0.2726083
v 0.013927 -8.358122E-05 -0.2337726
v 0.009294537 -0.01126698 -0.2337726
v 0.01709 0.0004965701 0.01453195
v 0.01153128 -0.01292371 0.0145319
v 0.01475229 0.01692544 -0.2726083
v 0.01153135 0.01391664 -0.2974113
v 0.01709026 0.0004964389 -0.2974112
v 0.02164512 0.0002843368 -0.2726083
v 0.009294556 0.01110008 -0.2337726
v 0.013927 -8.358122E-05 -0.2337726
v 0.01153123 0.0139167 0.0145319
v 0.01709 0.0004965701 0.01453195
v -0.001888951 0.02381845 -0.2726083
v -0.001888958 0.01947561 -0.2974113
v 0.01153135 0.01391664 -0.2974113
v 0.01475229 0.01692544 -0.2726083
v -0.001888995 0.01573232 -0.2337726
v 0.009294556 0.01110008 -0.2337726
v -0.00188902 0.01947563 0.0145319
v 0.01153123 0.0139167 0.0145319
v -0.01852995 0.01692546 -0.2726083
v -0.01530914 0.01391667 -0.2974112
v -0.001888958 0.01947561 -0.2974113
v -0.001888951 0.02381845 -0.2726083
v -0.01307233 0.0110999 -0.2337727
v -0.001888995 0.01573232 -0.2337726
v -0.01530927 0.01391673 0.01453194
v -0.00188902 0.01947563 0.0145319
v -0.0254229 0.0002843956 -0.2726083
v -0.02086799 0.0004964662 -0.2974113
v -0.01530914 0.01391667 -0.2974112
v -0.01852995 0.01692546 -0.2726083
v -0.01770479 -8.352347E-05 -0.2337726
v -0.01307233 0.0110999 -0.2337727
v -0.02086806 0.0004964863 0.0145319
v -0.01530927 0.01391673 0.01453194
v -0.01853006 -0.01635669 -0.2726083
v -0.01530909 -0.01292374 -0.2974112
v -0.02086799 0.0004964662 -0.2974113
v -0.0254229 0.0002843956 -0.2726083
v -0.01307235 -0.01126716 -0.2337727
v -0.01770479 -8.352347E-05 -0.2337726
v -0.01530922 -0.01292368 0.01453193
v -0.02086806 0.0004964863 0.0145319
v -0.001888825 -0.02324972 -0.2726083
v -0.001888909 -0.01848263 -0.2974112
v -0.01530909 -0.01292374 -0.2974112
v -0.01853006 -0.01635669 -0.2726083
v -0.001888876 -0.01589955 -0.2337726
v -0.01307235 -0.01126716 -0.2337727
v -0.00188897 -0.01848261 0.01453193
v -0.01530922 -0.01292368 0.01453193
v 0.0115314 -0.01292376 -0.2974113
v 0.01709026 0.0004964389 -0.2974112
v 0.01153135 0.01391664 -0.2974113
v -0.001888909 -0.01848263 -0.2974112
v -0.001888958 0.01947561 -0.2974113
v -0.01530909 -0.01292374 -0.2974112
v -0.01530914 0.01391667 -0.2974112
v -0.02086799 0.0004964662 -0.2974113
vt 0.3778536 0.5004176
vt 0.3870748 0.5004176
vt 0.3870748 0.5025462
vt 0.3778536 0.5025462
vt 0.3859961 0.4499324
vt 0.3952173 0.4499324
vt 0.3870748 0.5004176
vt 0.3778536 0.5004176
vt 0.3859961 0.3647896
vt 0.3952173 0.3647896
vt 0.3952173 0.4499324
vt 0.3859961 0.4499324
vt 0.3807883 0.3136897
vt 0.3900096 0.3136897
vt 0.3952173 0.3647896
vt 0.3859961 0.3647896
vt 0.3807883 0.313704
vt 0.3900096 0.313704
vt 0.3900096 0.3136897
vt 0.3807883 0.3136897
vt 0.3859961 0.3647896
vt 0.3952173 0.3647896
vt 0.3900096 0.313704
vt 0.3807883 0.313704
vt 0.3859961 0.4496706
vt 0.3952173 0.4496706
vt 0.3952173 0.3647896
vt 0.3859961 0.3647896
vt 0.3778536 0.5025462
vt 0.3870748 0.5025462
vt 0.3952173 0.4496706
vt 0.3859961 0.4496706
vt 0.968967 0.2862943
vt 0.949173 0.2859556
vt 0.9372583 0.3410698
vt 0.9798815 0.3416086
vt 0.935386 0.4322494
vt 0.9802273 0.4328043
vt 0.9492715 0.4884859
vt 0.9652775 0.4887573
vt 0.9492366 0.2859747
vt 0.9798896 0.3416106
vt 0.9689729 0.2862913
vt 0.937262 0.3410683
vt 0.9802319 0.4328066
vt 0.9353939 0.432243
vt 0.9652701 0.4887654
vt 0.9492646 0.4884719
vt 0.2743581 0.0562396
vt 0.2742825 0.02113896
vt 0.2968191 0.02113896
vt 0.2970624 0.05623958
vt 0.274827 0.6434659
vt 0.2890894 0.6434659
vt 0.2749768 0.6953568
vt 0.2507211 0.0562396
vt 0.2508467 0.02113896
vt 0.2742825 0.02113896
vt 0.2743581 0.0562396
vt 0.2614266 0.6434659
vt 0.274827 0.6434659
vt 0.2749768 0.6953568
vt 0.2744677 0.6434659
vt 0.2890894 0.6434659
vt 0.2737954 0.0562396
vt 0.2970624 0.05623958
vt 0.2737245 0.02113896
vt 0.2968191 0.02113896
vt 0.2737954 0.0562396
vt 0.2737245 0.02113896
vt 0.2508467 0.02113896
vt 0.2507211 0.0562396
vt 0.2744677 0.6434659
vt 0.2614266 0.6434659
vt 0.2749768 0.6953568
vt 0.2742825 0.02113896
vt 0.2508467 0.02113896
vt 0.2737245 0.02113896
vt 0.2968191 0.02113896
vt 0.5670803 0.5287467
vt 0.5698181 0.5457508
vt 0.581226 0.5457508
vt 0.581226 0.5287467
vt 0.5717195 0.5021224
vt 0.581226 0.5021224
vt 0.5698181 0.3673863
vt 0.581226 0.3673863
vt 0.5548193 0.5287467
vt 0.5599304 0.5457508
vt 0.5698181 0.5457508
vt 0.5670803 0.5287467
vt 0.5634795 0.5021224
vt 0.5717195 0.5021224
vt 0.5599301 0.3673863
vt 0.5698181 0.3673863
vt 0.5670803 0.5287467
vt 0.5698181 0.5457508
vt 0.5599304 0.5457508
vt 0.5548193 0.5287467
vt 0.5717195 0.5021224
vt 0.5634795 0.5021224
vt 0.5698181 0.3673863
vt 0.5599301 0.3673863
vt 0.581226 0.5287467
vt 0.581226 0.5457508
vt 0.5698181 0.5457508
vt 0.5670803 0.5287467
vt 0.581226 0.5021224
vt 0.5717195 0.5021224
vt 0.581226 0.3673863
vt 0.5698181 0.3673863
vt 0.5953717 0.5287467
vt 0.5926338 0.5457508
vt 0.581226 0.5457508
vt 0.581226 0.5287467
vt 0.5907325 0.5021224
vt 0.581226 0.5021224
vt 0.5926338 0.3673863
vt 0.581226 0.3673863
vt 0.6076327 0.5287467
vt 0.6025216 0.5457508
vt 0.5926338 0.5457508
vt 0.5953717 0.5287467
vt 0.5989724 0.5021224
vt 0.5907325 0.5021224
vt 0.6025216 0.3673863
vt 0.5926338 0.3673863
vt 0.5953717 0.5287467
vt 0.5926338 0.5457508
vt 0.6025216 0.5457508
vt 0.6076327 0.5287467
vt 0.5907325 0.5021224
vt 0.5989724 0.5021224
vt 0.5926338 0.3673863
vt 0.6025216 0.3673863
vt 0.581226 0.5287467
vt 0.581226 0.5457508
vt 0.5926338 0.5457508
vt 0.5953717 0.5287467
vt 0.581226 0.5021224
vt 0.5907325 0.5021224
vt 0.581226 0.3673863
vt 0.5926338 0.3673863
vt 0.5449114 0.1914581
vt 0.5574307 0.1633325
vt 0.5463988 0.1346013
vt 0.516175 0.2025024
vt 0.5182785 0.1220948
vt 0.4880547 0.189996
vt 0.4895422 0.1331392
vt 0.477023 0.1612647
vn 0.9899497 0.1414195 7.846487E-06
vn 0.9899497 0.1414195 7.857696E-06
vn 0.9899497 0.1414195 7.846487E-06
vn 0.9899497 0.1414195 7.857696E-06
vn 0.2886753 0.957427 3.839012E-06
vn 0.2886754 0.957427 3.880471E-06
vn 0.2886754 0.957427 3.882378E-06
vn 0.2886754 0.957427 3.865729E-06
vn -1.969682E-07 1 4.908759E-06
vn -1.969682E-07 1 4.908759E-06
vn -2.186075E-07 1 4.931132E-06
vn -2.23159E-07 1 4.941197E-06
vn -0.2149517 0.9766247 2.72613E-06
vn -0.2149518 0.9766247 2.717639E-06
vn -0.2149517 0.9766247 2.72613E-06
vn -0.2149518 0.9766247 2.717639E-06
vn -0.9999998 -0.0007607304 -2.461566E-06
vn -0.9999998 -0.00076071 -2.454454E-06
vn -0.9999998 -0.0007607304 -2.461566E-06
vn -0.9999998 -0.00076071 -2.454454E-06
vn -0.1995641 -0.9798847 2.011557E-06
vn -0.1995642 -0.9798847 1.996815E-06
vn -0.1995642 -0.9798847 1.982072E-06
vn -0.1995642 -0.9798847 1.982072E-06
vn -0.02508279 -0.9996854 8.781915E-06
vn -0.02508279 -0.9996854 8.781915E-06
vn -0.02508279 -0.9996854 8.771851E-06
vn -0.02508282 -0.9996854 8.767172E-06
vn 0.2292017 -0.973379 5.938697E-06
vn 0.2292017 -0.973379 5.953439E-06
vn 0.2292017 -0.973379 5.95969E-06
vn 0.2292017 -0.973379 5.953439E-06
vn -0.1068635 -2.638385E-05 -0.9942737
vn -0.1068635 -2.639197E-05 -0.9942737
vn -0.04945219 -1.1722E-05 -0.9987765
vn -0.04956833 -1.172196E-05 -0.9987707
vn 0.07615319 0.002474096 -0.9970931
vn 0.07430967 0.002414235 -0.9972323
vn 0.1640311 0.005328071 -0.9864407
vn 0.1640312 0.005328034 -0.9864407
vn 0.1068632 2.704643E-05 0.9942737
vn 0.04945203 1.251894E-05 0.9987765
vn 0.1068632 2.705308E-05 0.9942737
vn 0.04956824 1.253848E-05 0.9987707
vn -0.0761532 -0.002473207 0.9970931
vn -0.07430977 -0.002413335 0.9972323
vn -0.1640313 -0.005327136 0.9864407
vn -0.1640313 -0.005327176 0.9864407
vn 0.3286751 0.9444425 0.001026106
vn 0.3276786 0.9447862 -0.002400044
vn 0.3276787 0.9447862 -0.002400005
vn 0.3286743 0.9444428 0.001023399
vn 0.3307381 0.942548 0.0470676
vn 0.3306771 0.9427277 0.04378447
vn 0.3312088 0.9391958 0.09062079
vn -0.3226478 0.9465166 0.002132105
vn -0.3162268 0.9486829 -0.001170308
vn -0.3162268 0.9486829 -0.001170294
vn -0.3226795 0.9465058 0.002148391
vn -0.3389597 0.9397228 0.04502595
vn -0.3397416 0.9392797 0.04826374
vn 0.1188853 -0.4048771 0.9066095
vn 0.3439691 -0.937847 0.0461338
vn 0.3439099 -0.9380171 0.04301014
vn 0.3418991 -0.9397362 0.0009682307
vn 0.3418984 -0.9397364 0.0009658042
vn 0.3408974 -0.9400976 -0.00236966
vn 0.3408974 -0.9400976 -0.00236966
vn -0.3506203 -0.9365151 0.002234773
vn -0.3435831 -0.9391216 -0.001139831
vn -0.3435831 -0.9391216 -0.001139845
vn -0.3505857 -0.936528 0.002218131
vn -0.3691957 -0.928019 0.04975253
vn -0.368342 -0.928532 0.04639425
vn -0.380184 -0.9200563 0.09463894
vn 4.533824E-07 1.281509E-06 -1
vn 4.59624E-07 1.278504E-06 -1
vn 4.587922E-07 1.261925E-06 -1
vn 4.455005E-07 1.270381E-06 -1
vn 0.3826901 -0.9238746 -0.002045628
vn 0.3767928 -0.9096488 -0.1748316
vn 0.3767928 -0.9096488 -0.1748316
vn 0.3826906 -0.9238757 -0.001250589
vn 0.3813508 -0.9206324 0.08371117
vn 0.3813555 -0.9206436 0.08356624
vn 0.3826755 -0.9238328 -0.009610737
vn 0.3826755 -0.9238328 -0.009610715
vn 0.9238755 -0.3826872 0.002130206
vn 0.9103658 -0.3770892 -0.1704051
vn 0.9103658 -0.3770892 -0.1704051
vn 0.92387 -0.3826851 0.004051103
vn 0.9204766 -0.381278 0.08573191
vn 0.9205053 -0.3812899 0.08536977
vn 0.9238248 -0.3826611 -0.0108745
vn 0.9238248 -0.3826611 -0.01087451
vn 0.9238445 0.3826661 0.008824049
vn 0.91135 0.3774914 -0.1641378
vn 0.91135 0.3774914 -0.1641378
vn 0.9238271 0.3826589 0.01074819
vn 0.9202603 0.3811824 0.08843682
vn 0.9202912 0.3811952 0.08805884
vn 0.9238055 0.3826526 -0.01266192
vn 0.9238055 0.3826526 -0.01266192
vn 0.3826441 0.923788 0.01412085
vn 0.3777741 0.9120226 -0.1596917
vn 0.3777742 0.9120226 -0.1596918
vn 0.3826396 0.9237772 0.01491791
vn 0.3811195 0.9201123 0.09022947
vn 0.3811251 0.9201258 0.09006803
vn 0.3826445 0.9237907 -0.01392613
vn 0.3826445 0.9237907 -0.01392613
vn -0.3826465 0.9237744 0.01491926
vn -0.3777773 0.9120215 -0.1596907
vn -0.3777772 0.9120215 -0.1596907
vn -0.3826509 0.9237851 0.01412202
vn -0.3811342 0.9201219 0.09006862
vn -0.3811287 0.9201085 0.09022972
vn -0.3826523 0.9237874 -0.01392674
vn -0.3826523 0.9237874 -0.01392677
vn -0.9238251 0.3826639 0.010749
vn -0.9113494 0.3774938 -0.1641365
vn -0.9113494 0.3774938 -0.1641365
vn -0.9238425 0.3826712 0.00882422
vn -0.920289 0.3812006 0.0880578
vn -0.920258 0.3811878 0.08843681
vn -0.9238043 0.3826555 -0.01266295
vn -0.9238043 0.3826555 -0.01266294
vn -0.9238726 -0.3826786 0.004048703
vn -0.9103667 -0.3770847 -0.1704106
vn -0.9103667 -0.3770847 -0.1704106
vn -0.9238781 -0.382681 0.002128272
vn -0.9205068 -0.3812862 0.08537036
vn -0.9204781 -0.3812744 0.08573161
vn -0.9238242 -0.3826626 -0.01087518
vn -0.9238242 -0.3826625 -0.01087516
vn -0.3826851 -0.923878 -0.001251957
vn -0.3767912 -0.9096493 -0.1748333
vn -0.3767912 -0.9096493 -0.1748333
vn -0.3826846 -0.9238768 -0.002047035
vn -0.3813478 -0.9206469 0.08356515
vn -0.3813431 -0.9206356 0.083711
vn -0.3826695 -0.9238353 -0.009610565
vn -0.3826696 -0.9238353 -0.009610579
vn -3.80351E-07 -2.723757E-07 -1
vn -3.878286E-07 -2.847267E-07 -1
vn -3.811828E-07 -2.88955E-07 -1
vn -3.874245E-07 -2.859501E-07 -1
vn -3.811828E-07 -2.88955E-07 -1
vn -3.791151E-07 -2.570199E-07 -1
vn -3.791151E-07 -2.570199E-07 -1
vn -3.878286E-07 -2.847267E-07 -1
g Longsword_0
f 3/3/3 2/2/2 1/1/1
f 4/4/4 3/3/3 1/1/1
f 7/7/7 6/6/6 5/5/5
f 8/8/8 7/7/7 5/5/5
f 11/11/11 10/10/10 9/9/9
f 12/12/12 11/11/11 9/9/9
f 15/15/15 14/14/14 13/13/13
f 16/16/16 15/15/15 13/13/13
f 19/19/19 18/18/18 17/17/17
f 20/20/20 19/19/19 17/17/17
f 23/23/23 22/22/22 21/21/21
f 24/24/24 23/23/23 21/21/21
f 27/27/27 26/26/26 25/25/25
f 28/28/28 27/27/27 25/25/25
f 31/31/31 30/30/30 29/29/29
f 32/32/32 31/31/31 29/29/29
f 35/35/35 34/34/34 33/33/33
f 36/36/36 35/35/35 33/33/33
f 37/37/37 35/35/35 36/36/36
f 38/38/38 37/37/37 36/36/36
f 39/39/39 37/37/37 38/38/38
f 40/40/40 39/39/39 38/38/38
f 43/43/43 42/42/42 41/41/41
f 42/42/42 44/44/44 41/41/41
f 44/44/44 42/42/42 45/45/45
f 46/46/46 44/44/44 45/45/45
f 46/46/46 45/45/45 47/47/47
f 48/48/48 46/46/46 47/47/47
f 51/51/51 50/50/50 49/49/49
f 52/52/52 51/51/51 49/49/49
f 52/52/52 49/49/49 53/53/53
f 54/54/54 52/52/52 53/53/53
f 53/53/53 55/55/55 54/54/54
f 58/58/58 57/57/57 56/56/56
f 59/59/59 58/58/58 56/56/56
f 59/59/59 56/56/56 60/60/60
f 61/61/61 59/59/59 60/60/60
f 60/60/60 62/62/62 61/61/61
f 64/64/64 62/62/62 63/63/63
f 63/63/63 65/65/65 64/64/64
f 65/65/65 66/66/66 64/64/64
f 65/65/65 67/67/67 66/66/66
f 67/67/67 68/68/68 66/66/66
f 71/71/71 70/70/70 69/69/69
f 72/72/72 71/71/71 69/69/69
f 72/72/72 69/69/69 73/73/73
f 74/74/74 72/72/72 73/73/73
f 73/73/73 75/75/75 74/74/74
f 78/78/78 77/77/77 76/76/76
f 79/79/79 78/78/78 76/76/76
f 82/82/82 81/81/81 80/80/80
f 83/83/83 82/82/82 80/80/80
f 83/83/83 80/80/80 84/84/84
f 85/85/85 83/83/83 84/84/84
f 85/85/85 84/84/84 86/86/86
f 87/87/87 85/85/85 86/86/86
f 90/90/90 89/89/89 88/88/88
f 91/91/91 90/90/90 88/88/88
f 91/91/91 88/88/88 92/92/92
f 93/93/93 91/91/91 92/92/92
f 93/93/93 92/92/92 94/94/94
f 95/95/95 93/93/93 94/94/94
f 98/98/98 97/97/97 96/96/96
f 99/99/99 98/98/98 96/96/96
f 99/99/99 96/96/96 100/100/100
f 101/101/101 99/99/99 100/100/100
f 101/101/101 100/100/100 102/102/102
f 103/103/103 101/101/101 102/102/102
f 106/106/106 105/105/105 104/104/104
f 107/107/107 106/106/106 104/104/104
f 107/107/107 104/104/104 108/108/108
f 109/109/109 107/107/107 108/108/108
f 109/109/109 108/108/108 110/110/110
f 111/111/111 109/109/109 110/110/110
f 114/114/114 113/113/113 112/112/112
f 115/115/115 114/114/114 112/112/112
f 115/115/115 112/112/112 116/116/116
f 117/117/117 115/115/115 116/116/116
f 117/117/117 116/116/116 118/118/118
f 119/119/119 117/117/117 118/118/118
f 122/122/122 121/121/121 120/120/120
f 123/123/123 122/122/122 120/120/120
f 123/123/123 120/120/120 124/124/124
f 125/125/125 123/123/123 124/124/124
f 125/125/125 124/124/124 126/126/126
f 127/127/127 125/125/125 126/126/126
f 130/130/130 129/129/129 128/128/128
f 131/131/131 130/130/130 128/128/128
f 131/131/131 128/128/128 132/132/132
f 133/133/133 131/131/131 132/132/132
f 133/133/133 132/132/132 134/134/134
f 135/135/135 133/133/133 134/134/134
f 138/138/138 137/137/137 136/136/136
f 139/139/139 138/138/138 136/136/136
f 139/139/139 136/136/136 140/140/140
f 141/141/141 139/139/139 140/140/140
f 141/141/141 140/140/140 142/142/142
f 143/143/143 141/141/141 142/142/142
f 146/146/146 145/145/145 144/144/144
f 144/144/144 147/147/147 146/146/146
f 147/147/147 148/148/148 146/146/146
f 147/147/147 149/149/149 148/148/148
f 149/149/149 150/150/150 148/148/148
f 149/149/149 151/151/151 150/150/150
